<?xml version="1.0" standalone="no"?>
<!DOCTYPE svg PUBLIC "-//W3C//DTD SVG 1.1//EN" "http://www.w3.org/Graphics/SVG/1.1/DTD/svg11.dtd" >
<svg xmlns="http://www.w3.org/2000/svg" xmlns:xlink="http://www.w3.org/1999/xlink" version="1.1">
<metadata></metadata>
<defs>
<font id="fzqiti-s14sregular" horiz-adv-x="2048" vert-adv-y="2048" >
<font-face units-per-em="2048" ascent="1632" descent="-416" />
<missing-glyph horiz-adv-x="392" />
<glyph horiz-adv-x="0" vert-adv-y="0" />
<glyph horiz-adv-x="682" />
<glyph unicode=" "  horiz-adv-x="392" />
<glyph unicode="&#x09;" horiz-adv-x="392" />
<glyph unicode="&#xa0;" horiz-adv-x="392" />
<glyph unicode="!" horiz-adv-x="384" d="M72 352v24q0 40 16 144q-16 -72 0 24q8 80 32 240q24 152 32 224v64q0 48 -8 96q0 72 96 72h96l-80 -376q-24 -120 -40 -368q-8 -160 -16 -240q0 -32 -24 -96q-112 88 -104 192zM240 48v-32q-8 -16 -24 -16q8 0 -8 0h-112q-48 8 -48 72q0 16 8 48q-8 -16 8 16 q24 16 56 16q120 -24 120 -104z" />
<glyph unicode="&#x22;" horiz-adv-x="512" d="M384 1224l48 -40q40 -24 40 -56q0 -8 -72 -152q-72 -128 -160 -200q-24 72 -24 120q8 152 168 328zM216 1240l56 -40q24 -24 32 -48q0 -24 -80 -160q0 -8 -8 -16q-72 -120 -136 -184q-32 80 -32 120q8 152 168 328z" />
<glyph unicode="#" horiz-adv-x="808" d="M208 344l-40 -8l-64 -8q-40 24 -40 64q0 56 56 104l80 8v112q-16 0 -32 -8q-40 0 -64 -16q-40 16 -56 48v8q0 40 56 96l96 8l8 200l120 -48l24 -112l-8 -40l64 8l24 224l72 -48v8q32 -8 56 -128l-8 -56l96 8l16 -8q32 0 32 -24v8l8 -24q0 -8 -56 -72h-80h-24v-128l128 8 h16q32 -8 32 -48q-8 -24 -8 -16q-8 0 48 56q-48 -72 -96 -104l-24 8q-48 0 -112 -16v-248q-112 48 -104 136q0 56 -8 88l-48 -8q-24 0 -40 -8h-8v-200q-80 24 -104 80v48q-8 32 -8 48zM376 632l-40 -8l-8 -112l80 16v104h-32z" />
<glyph unicode="$" horiz-adv-x="744" d="M520 952l-48 -432q136 -56 192 -104q80 -40 80 -112q-8 -48 -80 -56l-96 -8h-48l-64 8l-32 -264q-8 0 -16 8q-72 16 -72 40v32l-16 64l8 136q-16 0 -48 8q-72 8 -96 16q-72 16 -184 112l224 -32l112 -8l16 104q-240 96 -240 232q24 184 280 336l24 240q128 -16 128 -144 l-8 -64q40 -8 96 -48q96 -48 120 -176q-104 32 -160 80q-48 48 -48 40h-8q-8 -8 -16 -8zM360 576l24 304l-8 -8q-8 0 -24 -24q-136 -112 -136 -176q16 -32 144 -96zM464 416v-72h40h64h8q8 -8 8 0q-8 32 -120 72z" />
<glyph unicode="%" horiz-adv-x="1016" d="M328 384l-160 -240q-80 -128 -168 -160v120q40 56 120 176q248 360 408 536l184 208l-80 -16l-128 16l-72 -216q-32 -120 -168 -128q-72 0 -152 64q-88 64 -88 200q0 64 40 192q48 152 184 152q64 0 152 -80q88 -72 216 -88q104 0 376 120q16 16 24 16 q-16 -136 -208 -320q-40 -48 -120 -136q-248 -248 -360 -416zM872 96q-56 -128 -176 -128q-72 0 -152 56q-96 72 -96 192q0 104 64 248t168 144q88 -40 160 -104q96 -72 88 -192q0 -80 -56 -216zM368 1000v8q-8 64 -48 120q-8 8 -16 24q-8 24 -16 24q-48 0 -88 -96 q-48 -112 -48 -168q8 -48 32 -88q40 -32 48 -32q48 0 96 88q40 88 40 120zM768 424q-40 40 -88 48q-32 0 -64 -72q-48 -104 -48 -208q0 -56 24 -96q24 -32 80 -32q104 16 128 272q0 48 -32 88z" />
<glyph unicode="&#x26;" horiz-adv-x="688" d="M456 1080l-8 -40q24 8 40 8q72 0 72 -56v-24l-160 -48l-48 -16q-8 0 -16 -8q-144 -72 -160 -128q8 -24 88 -24q64 0 176 16h40q32 0 56 -32v-32l-8 -56h-40q-32 0 -168 -72l-32 -16q-136 -56 -144 -160v-24q0 -56 64 -48q64 0 232 64q48 16 64 24q24 24 40 24l120 64 l-16 -120l-152 -80l-64 -32v-24l-16 -144l-64 8q-24 24 -24 32l-8 56l-8 32l-56 -16l-64 -8q-48 0 -88 32q-40 24 -64 72q0 16 -8 40q0 24 -8 32q0 136 200 256q-152 24 -152 120q8 120 136 216q64 24 120 48q0 96 16 192q120 -24 112 -128z" />
<glyph unicode="'" horiz-adv-x="256" d="M184 1024q-32 -72 -112 -128q-40 72 -40 104q8 176 152 280q40 -72 40 -120q0 -64 -40 -136z" />
<glyph unicode="(" horiz-adv-x="688" d="M568 1136h-24h-24h-24q-40 -8 -112 -80q-88 -80 -160 -248q-72 -160 -72 -392q0 -168 96 -272l192 -160h-152q-264 136 -256 504q0 264 152 528t296 264q40 0 80 -24l24 -24l80 -96h-96z" />
<glyph unicode=")" horiz-adv-x="664" d="M80 1160l96 64q8 0 16 8q16 8 40 8q128 0 248 -208q112 -200 112 -416q0 -88 -24 -184q-8 -56 -48 -168q-8 -24 -8 -32q-80 -232 -312 -224q288 248 264 568q0 216 -96 376q-88 160 -288 208z" />
<glyph unicode="*" horiz-adv-x="536" d="M408 1008l8 -8q88 0 88 -72q0 -56 -72 -56q-24 0 -48 8q32 -40 32 -80q0 -48 -40 -64l8 8q-16 -16 -32 -16q-48 0 -80 80q0 8 -8 24q0 16 -8 16q0 -24 -8 -48q-32 -64 -72 -64q-8 0 -32 8q-24 16 -32 56q0 16 24 56v8q-96 0 -96 48v16q0 72 120 88h-8v16l-32 72l16 40 l24 8l24 8q72 -8 96 -88l8 16q72 72 104 72q16 0 32 -16q24 -16 32 -56q0 -32 -48 -80z" />
<glyph unicode="+" horiz-adv-x="696" d="M656 624l-8 -16l8 8q-8 -24 -48 -40h-32h-72l-80 -16l-16 -376q-96 32 -96 120q0 24 -8 64v24l-16 152h-56q-32 -8 -56 -8l-104 -8q-40 32 -40 56q0 56 56 104h200l-8 72v96q0 88 32 112q56 0 88 -16h-8q72 -32 32 -264l184 8h16q32 -8 40 -48z" />
<glyph unicode="," horiz-adv-x="448" d="M264 192l64 -40q24 -24 24 -56q0 -16 -72 -128q-80 -136 -152 -208q-32 88 -32 120q0 128 168 312z" />
<glyph unicode="-" horiz-adv-x="712" d="M576 488l-40 -24h-80q-88 -8 -136 -8l-168 -16q-40 16 -40 64q0 56 56 104l120 -16h112q104 0 144 16q72 -48 64 -72q0 -24 -32 -48z" />
<glyph unicode="." horiz-adv-x="376" d="M288 16q-40 -40 -104 -40q-88 0 -112 80v24q8 112 112 120q88 -8 120 -96v-32q8 -24 -16 -56z" />
<glyph unicode="/" horiz-adv-x="1056" d="M48 0l-48 48q0 88 112 264q184 248 408 496q8 8 16 24q16 24 72 88q16 16 40 48q208 240 328 344q16 8 24 8q16 0 48 -16l16 -8q0 -80 -64 -152q-216 -224 -424 -464q-240 -256 -392 -536q-88 -136 -136 -144z" />
<glyph unicode="0" horiz-adv-x="824" d="M920 392q-48 -144 -176 -312q-32 -24 -40 -32q-112 -72 -232 -72q-88 0 -272 56q-24 8 -32 8q-240 72 -272 272q-24 88 -24 184q8 240 80 368q48 104 192 216q8 8 48 40q152 152 224 168q48 0 112 -40q256 -104 400 -368l16 -32q32 -104 32 -192q0 -112 -56 -264z M408 1104l-216 -152q-176 -160 -200 -520q-8 -40 -8 -56q0 -80 40 -144q72 -112 240 -120q80 -16 152 -16q24 0 104 8q-56 -8 32 8q72 8 176 168q112 144 112 280q0 192 -40 280q-40 96 -112 176q-80 88 -120 112q-32 24 -72 16q-40 0 -88 -40z" />
<glyph unicode="1" horiz-adv-x="824" d="M448 424v-472l-112 40q-16 8 -40 96l104 1160q104 -48 120 -128q8 -16 8 -24z" />
<glyph unicode="2" horiz-adv-x="824" d="M120 64h32q88 24 336 48q272 24 296 40l96 -72q-32 -48 -232 -72l-384 -24l-216 -24q-24 0 -48 -8l-80 -24v120q856 744 872 1032q0 72 -112 72q-24 8 -56 8q-64 0 -296 -72q-248 -72 -328 -64q96 144 328 200q216 72 312 64q256 -24 280 -248q0 -168 -160 -336 q-144 -176 -400 -400q-176 -152 -240 -240z" />
<glyph unicode="3" horiz-adv-x="824" d="M0 0l-8 112l128 -8l80 -8q192 -8 392 120q192 120 184 256q0 176 -232 168q-72 0 -280 -40q-64 -16 -80 -16l-16 88l8 32q16 48 192 128t296 152q96 64 96 120q-8 56 -112 64q-72 0 -200 -24q-40 -8 -64 -16l-440 -136l248 208q200 80 416 80q248 -8 256 -216 q0 -88 -104 -160q-72 -56 -248 -152q184 -24 264 -64q120 -40 120 -256l-48 -120q-64 -136 -216 -240q-160 -88 -400 -88q-64 0 -176 16h-56z" />
<glyph unicode="4" horiz-adv-x="824" d="M688 280l-8 -128l-8 -152h-48h-32l-40 8v160v48v40v16h-88q-88 -16 -176 -16q-408 -72 -432 88q8 160 416 576q400 400 472 416q80 -16 104 -128q-120 -512 -152 -808l40 -8h64h16q64 8 80 -16l88 -88q-128 0 -256 -8h-40zM120 560l-112 -168l544 8l120 712 q-144 -96 -288 -248q-144 -144 -264 -304z" />
<glyph unicode="5" horiz-adv-x="824" d="M0 0l-88 80q312 0 608 120q296 128 296 256q0 200 -432 192q-136 0 -184 -8q-8 0 -24 -8q-24 -8 -48 -8q-8 0 -24 -8t-24 -8q-80 0 -80 144l48 496h184q104 8 152 8l296 16l64 -8l56 -8l80 -56q-216 -64 -464 -64q-120 0 -192 -16h-24q-16 8 -16 -8q-56 -56 -64 -304v-24 h360q160 0 304 -88q144 -80 144 -264q0 -88 -112 -184q-120 -112 -312 -184q-208 -72 -472 -72q-16 0 -32 8z" />
<glyph unicode="6" horiz-adv-x="824" d="M240 808h24h48h72q256 0 368 -96q96 -96 96 -248q0 -200 -144 -344q-136 -136 -336 -136q-360 16 -376 456q8 368 344 728l16 16q128 136 200 136q48 0 136 -72q88 -48 128 -192q-104 24 -160 88q-48 40 -72 40q-8 0 -88 -56q-40 -32 -64 -48q-120 -104 -192 -272z M672 632q-48 64 -200 64q-232 0 -304 -72t-72 -296q8 -224 264 -232q144 0 256 128q104 136 104 280q0 72 -48 128z" />
<glyph unicode="7" horiz-adv-x="824" d="M728 992l-168 -240q-24 -40 -80 -112q-144 -184 -200 -296l-112 -208l-72 -136h-56q-40 0 -40 40v8q40 224 592 992q40 56 56 80h-168h-32q-32 -8 -48 -8q-104 -24 -216 -40q-40 0 -152 32l16 40v16l24 32q48 8 216 32q72 0 112 8q232 24 280 24t96 -8h8q16 -8 40 -112z " />
<glyph unicode="8" horiz-adv-x="824" d="M160 696l-64 64q-40 48 -40 144q8 240 224 336q64 24 120 24q128 0 216 -112q48 -56 72 -56q16 0 48 32q40 48 184 88q-24 -128 -160 -216q-16 -16 -112 -80q-216 -152 -264 -208q176 -96 272 -176q120 -80 120 -200q0 -128 -136 -248q-128 -112 -344 -104 q-352 24 -376 288q0 152 184 360q40 40 56 64zM208 824l40 -40l328 248q-48 48 -96 88q-48 48 -56 40q-32 8 -144 -88q-96 -80 -96 -168q0 -56 24 -80zM504 488l-224 120q-96 -80 -184 -168q-64 -64 -56 -192v-40q-8 -32 72 -72q64 -40 160 -40q224 16 352 152q32 40 32 48 q0 128 -152 192z" />
<glyph unicode="9" horiz-adv-x="824" d="M752 872l-48 -240l-24 -272l-32 -392l-8 8q-80 32 -112 88l24 264l8 120q-24 -8 -80 -16q-96 -32 -160 -32q-104 8 -208 80q-104 88 -104 240t144 344q144 200 304 200q72 0 192 -80q24 -16 32 -24l8 88l88 -40q48 -24 48 -80zM584 1096q-40 48 -104 48q-112 8 -232 -184 t-120 -304q16 -112 152 -136q200 0 272 112q80 112 80 368q0 48 -48 96z" />
<glyph unicode=":" horiz-adv-x="448" d="M296 576l-56 -16q-72 0 -112 64l-8 48q0 64 40 104q40 16 72 16q112 0 120 -112q0 -72 -56 -104zM288 32q-32 -24 -72 -24q-56 0 -96 48q-16 24 -16 64q8 104 112 112q104 -8 112 -112q8 -56 -40 -88z" />
<glyph unicode=";" horiz-adv-x="440" d="M328 568q-32 -24 -72 -24q-112 8 -120 120q48 184 216 72q24 -24 24 -72q0 -56 -48 -96zM240 192l64 -40q24 -24 24 -56q0 -16 -72 -128q-80 -136 -152 -208q-32 72 -32 120q8 144 168 312z" />
<glyph unicode="&#x3c;" horiz-adv-x="568" d="M16 600l432 272q16 -48 32 -48l80 -32l-24 -16l-112 -72l-248 -160q8 -40 128 -136q160 -120 152 -280l-288 256q-136 112 -152 216z" />
<glyph unicode="=" horiz-adv-x="552" d="M464 504h-48h-112q-24 0 -104 -8h-64q-8 0 -16 -8q-24 -8 -40 -16q-40 24 -56 72q8 24 32 64l32 32l376 -16q64 0 64 -48q0 -56 -64 -72zM496 320l-32 -16q-144 16 -280 0q-56 -8 -104 -32q-48 24 -48 64q0 24 16 48q8 0 16 8q24 16 40 24l384 16q40 -32 40 -64 q0 -24 -32 -48z" />
<glyph unicode="&#x3e;" horiz-adv-x="568" d="M400 376l-288 -248q-8 160 160 272q120 96 128 144l-248 152l-120 80l-16 16l80 24q16 16 32 56l432 -272q-16 -104 -160 -224z" />
<glyph unicode="?" horiz-adv-x="848" d="M312 192l-40 120v24q0 120 112 208l184 168q96 96 96 240q0 104 -32 152q-24 48 -128 48t-232 -72q-112 -64 -184 -64q0 8 -16 32q-16 32 -16 48t16 40q256 120 352 136h64q136 0 224 -136q80 -128 80 -240q0 -120 -216 -360t-264 -344zM344 0q-48 -8 -72 -8 q-88 8 -104 88q8 40 32 64q24 40 104 40q88 -8 96 -120q0 -40 -56 -64z" />
<glyph unicode="@" horiz-adv-x="1000" d="M928 472v-48q-24 -120 -48 -160q-8 -40 -48 -56l-40 -16h-32q-32 0 -56 16l-40 48q-112 -112 -176 -112q-184 16 -200 200q0 88 96 240q104 168 216 168q24 0 104 -56l16 -8l40 40l64 -64q0 -8 -8 -40q-56 -248 -56 -312q0 -24 8 -24l16 -8l24 72q24 88 24 136 q0 280 -120 336q-72 24 -80 32q-112 -16 -272 -208q-168 -216 -168 -368q8 -200 272 -208q88 0 200 56l224 96q-96 -168 -208 -208q-96 -32 -216 -32q-168 0 -272 88q-120 112 -120 240q0 144 192 416q184 248 352 248q40 0 120 -32q184 -72 192 -424v-48zM656 608 q-8 8 -24 16l-8 8q-144 -80 -224 -304q0 -32 8 -56l32 -8q224 8 232 312q8 8 -16 32z" />
<glyph unicode="A" horiz-adv-x="1392" d="M1040 1232l8 40q144 -32 152 -120l-64 -272q0 -8 -8 -32q-104 -432 -104 -616q8 -152 56 -160q48 0 136 64q32 24 48 32q8 8 24 8q16 16 40 24v-104l-104 -88q-56 -24 -128 -24q-112 -8 -184 136q-240 -136 -424 -144q-184 0 -296 96q-120 120 -120 240t112 360 q232 400 608 624q48 32 96 32q72 -8 152 -96zM904 264l40 232l48 384l24 176v16q-32 88 -136 88q-32 0 -168 -96q-128 -96 -240 -248q-64 -64 -192 -248q-88 -128 -88 -264q32 -184 248 -224q32 0 248 72q176 64 216 112z" />
<glyph unicode="B" horiz-adv-x="1040" d="M696 688l152 -64q128 -72 128 -224q0 -200 -208 -320q-200 -112 -472 -104h-64q-104 0 -144 24q-32 48 -24 192l80 1072q88 0 136 -16q24 -32 24 -88l-8 -32q-8 -8 -8 -16q160 208 328 208q240 -48 280 -272q0 -144 -200 -360zM272 832l-16 -112v-32v-48q240 48 360 168 q120 144 120 256q-8 136 -80 136q-104 8 -240 -136q-128 -136 -144 -232zM624 552h-80q-312 0 -328 -104q-16 -64 -16 -160v-152l8 -32h64q296 0 432 112q144 96 144 208q0 64 -48 96q-72 32 -176 32z" />
<glyph unicode="C" horiz-adv-x="1056" d="M824 1056q-56 80 -112 80q-136 0 -336 -280q-216 -288 -216 -504q8 -144 104 -200q96 -64 240 -64q136 0 256 64q112 64 248 96q-104 -168 -224 -224q-168 -40 -280 -40q-184 -8 -328 128t-144 280q0 224 216 560q224 352 432 352q88 0 208 -120q112 -112 144 -256 q-128 16 -208 128z" />
<glyph unicode="D" horiz-adv-x="1224" d="M296 -16l-48 8q-24 0 -72 -16q-24 -8 -40 -8q0 16 -8 40q-24 96 -24 176l32 456q8 56 8 160q8 104 8 160q24 144 24 184q0 136 48 168l16 -8q104 -56 112 -120q0 -16 -8 -40q-24 -80 -24 -128q8 16 32 48q128 248 264 240q168 0 336 -184t168 -504q0 -344 -216 -504 q-208 -136 -552 -136q-24 0 -56 8zM264 456v-136q0 24 -16 -144q0 -56 8 -64q24 -8 200 -8q216 8 360 104q144 120 144 448q0 224 -64 328q-72 120 -136 152q-48 32 -112 40q-104 16 -192 -144q-104 -184 -168 -488q-16 -56 -24 -88z" />
<glyph unicode="E" horiz-adv-x="1000" d="M280 1136l-56 -560q88 0 176 16l136 8q40 0 72 -8t104 -88q-256 -40 -368 -48q-144 0 -136 -16l-16 -104v-184v-40h704l-40 -88q-40 -16 -296 -24q-40 -8 -56 -8l-312 -24q-48 -8 -104 24q-32 16 -32 64v64l8 48l56 1088q104 32 320 32q112 0 328 16q-152 -16 24 0 q88 0 128 -24q32 -16 72 -96q-264 0 -344 -8h-288q-32 0 -72 8h-24q24 -16 24 -40z" />
<glyph unicode="F" horiz-adv-x="936" d="M688 576l208 -168q-232 120 -264 136q-376 -8 -408 -40l-32 -288l-8 -232h-120v256q8 136 8 192l24 512q8 48 8 136v104q0 8 8 32q8 16 8 32q120 32 264 32q152 0 200 24h344l-120 -112q-48 -16 -312 -40q-32 0 -80 -8q-152 0 -152 -16q0 -152 -40 -448q-8 -24 -8 -40v8 l8 8l112 8l112 8l112 -8q32 8 184 -48q-48 -24 -56 -40z" />
<glyph unicode="G" horiz-adv-x="1280" d="M1080 488v0q8 -8 8 -24l8 -56q0 -24 -80 -136q-72 -112 -192 -208q-128 -72 -288 -72q-192 0 -328 88q-160 112 -160 328q0 208 120 408t280 344t232 144q64 0 192 -104q144 -120 136 -264q-112 16 -192 128q-48 72 -96 80q-56 -8 -184 -120q-360 -360 -368 -672 q0 -120 88 -192q112 -64 240 -64q136 0 304 136q168 144 168 224q0 16 -32 16l-152 -16l-152 -8q-64 0 -328 24q120 96 304 104q184 24 400 24q128 0 160 -16l64 -88h-104q-16 0 -32 -8h-16z" />
<glyph unicode="H" horiz-adv-x="1160" d="M920 464l-8 -80v-56v-120v-24q8 -128 -24 -200q-8 8 -32 16q-56 8 -64 56l-16 112l8 168l8 136h-24q-176 0 -368 -8q-136 24 -112 -120v-104v-40q8 -176 -24 -200l-48 -8h8h-32q-8 8 -16 8q-16 8 -16 16l-8 48l-8 80l8 136l16 152q-56 0 -72 16l8 -8q-24 0 -48 80l72 24 l32 8q24 160 24 312q0 256 24 376q8 72 56 72l32 -8h80l-56 -704v-40q240 0 472 40q0 120 32 368q24 240 24 360l64 -16q64 0 64 -56q0 -136 -16 -272l-32 -328v-64q24 8 184 -80q-136 -16 -152 -32q-8 0 -32 -8q16 8 -8 -8z" />
<glyph unicode="I" horiz-adv-x="1328" d="M1008 160l-104 -120l24 -40l104 -192q-136 40 -176 120q-16 56 -48 80q-104 -32 -216 -32q-200 0 -344 128q-152 144 -152 400q0 224 184 224q104 0 280 -96q40 -24 64 -32h-192l-88 32l-40 8q-64 -16 -72 -176q24 -384 360 -400q48 0 144 16q48 8 48 40l-48 224 q-24 104 -24 176v280q24 184 72 376q56 208 216 208q144 0 192 -128q48 -120 48 -272q0 -320 -80 -528q-72 -208 -152 -296zM1072 1232q-24 40 -48 40q-72 8 -120 -264q-56 -296 -56 -448q0 -264 48 -360q120 128 176 464q24 152 32 432q8 88 -32 136z" />
<glyph unicode="J" horiz-adv-x="1168" d="M8 312v88q0 80 32 232q-24 -104 0 24q8 -8 24 -32q72 -72 72 -88q0 -8 8 -8q8 -32 8 -64l-8 -32l-8 -16q0 -144 64 -256q48 -104 176 -104q136 0 208 160q72 168 72 384v536q0 48 -64 40l-40 -8h-40q-88 0 -160 40q-24 8 -32 16q64 56 168 56l160 8h24h16l64 8h56 q48 0 128 -16q-8 8 16 0q16 -8 72 -32q64 -24 120 -48q-344 0 -344 -72q-32 -72 -32 -720q0 -168 -96 -296q-96 -136 -296 -128q-168 0 -240 72q-72 88 -128 256z" />
<glyph unicode="K" horiz-adv-x="1000" d="M192 592l696 616l72 -72q-176 -200 -368 -376q-120 -120 -264 -232q48 -72 176 -192q56 -48 144 -136l88 -88q80 -80 72 -208q-176 120 -336 288q-208 208 -272 216q-24 0 -24 -160v-72v-176q-88 8 -112 40q-16 40 -16 88l24 328v448q0 144 8 288v32q16 72 80 64 q80 0 80 -104l-48 -432v-160z" />
<glyph unicode="L" horiz-adv-x="792" d="M56 0v208q24 112 16 224l24 392v272l8 184q24 0 56 -8q56 0 72 -8q48 -16 48 -72q0 -16 -8 -48q-80 -488 -80 -736v-296q8 -8 24 -8q16 -8 24 -8h104h80h136q24 0 56 -8q40 8 184 -72l-256 -16q-144 -8 -288 -8q-120 -8 -200 8z" />
<glyph unicode="M" horiz-adv-x="1104" d="M1040 1152v-24l-48 -720v-440l-144 72l32 712q-16 -40 -40 -128q-64 -208 -112 -312q-56 -144 -168 -144q-136 0 -224 328q-8 16 -8 24q-24 80 -64 256q-24 80 -32 120v-48q-8 -104 -8 -192q0 -56 -8 -144v-96v-88q-8 -80 -8 -120v-32v-184q-88 0 -120 8q-40 32 -24 120 q0 40 8 104v104q8 144 8 216l24 352v336l80 48l40 24q56 0 80 -56q16 -48 16 -104v-24v-16q128 -760 248 -792q24 -8 96 176q80 200 176 624q16 72 24 112q16 48 96 48q40 0 64 -24t24 -48z" />
<glyph unicode="N" horiz-adv-x="1040" d="M912 504l-16 -504q-120 0 -200 152q-32 48 -96 192q48 -120 -8 16l-32 64q-8 40 -104 240q-104 248 -168 344l-24 -272l-8 -192l-24 -568q-8 8 -24 16q-112 56 -112 136l8 48v40v232q8 176 8 272l8 280q0 264 168 264q80 0 104 -112q8 -88 128 -352q152 -392 264 -536 v296q0 416 16 560q16 160 88 168l32 -8q24 -48 32 -72q-8 -56 -24 -128v-64q-8 -48 -8 -72v-216q-8 -152 -8 -224z" />
<glyph unicode="O" horiz-adv-x="1104" d="M904 160q-144 -192 -360 -192q-464 24 -488 520q0 232 168 512q168 296 352 296q248 -32 432 -432q48 -120 48 -248q0 -248 -152 -456zM856 912q-72 112 -152 176q-32 16 -64 40l-24 16q-88 0 -248 -224t-160 -456q0 -168 72 -280q72 -120 224 -120q360 48 424 552 q0 176 -72 296z" />
<glyph unicode="P" horiz-adv-x="904" d="M312 352l-112 8q-8 -352 -88 -376l-56 8l56 1192h16q152 16 144 -104l-8 -48v-56q168 320 296 328q128 0 232 -144q96 -144 96 -376q0 -240 -104 -344q-112 -112 -424 -88h-48zM208 576v-96q24 8 48 8q40 0 96 -24q64 -16 128 -16q280 0 280 320q0 160 -64 288 q-48 120 -104 120q-96 0 -184 -168q-48 -88 -144 -296q-32 -88 -56 -136z" />
<glyph unicode="Q" horiz-adv-x="1376" d="M1424 -16l-360 16h-128q-216 0 -440 -8l-416 -8q32 72 136 80q16 0 32 8h24q-216 192 -208 464q0 264 192 512q192 264 328 264q48 0 144 -56q112 -64 208 -208q104 -152 104 -400q-8 -320 -232 -528q32 0 80 -8q56 -8 80 -16q16 0 56 -8q32 0 48 -8q8 0 48 -16 q120 -32 304 -80zM824 1032q-88 120 -208 112q-128 8 -272 -208q-144 -224 -144 -400q0 -152 88 -288q72 -128 224 -128q192 0 288 168q120 168 112 376q0 248 -88 368z" />
<glyph unicode="R" horiz-adv-x="1024" d="M888 0l-16 -16l-32 8q-232 0 -296 168l-88 264q-56 16 -128 16l-80 -8h-56q0 -24 -8 -56v-24q-8 -72 -8 -152l-16 -216q-40 16 -48 16h-8q-40 0 -64 24l48 1224q160 16 152 -136l-16 -144l56 96q112 232 224 232q120 0 248 -120q136 -112 136 -352q0 -160 -96 -256 l-176 -136q8 -248 88 -296q104 -64 280 -56zM208 552h88h40q200 -24 304 48q96 56 96 200q0 200 -72 296q-64 96 -120 96q-88 0 -216 -248q-104 -224 -120 -392z" />
<glyph unicode="S" horiz-adv-x="976" d="M840 0l-112 -16l8 8q-16 -8 -40 -8q-56 0 -168 16q-72 8 -104 8q-256 32 -384 176l384 -64q56 -8 168 -16q56 -8 88 -8q56 0 72 8v8q-8 72 -200 176q-208 120 -296 184q-96 88 -96 240q0 160 176 376t328 216q16 0 128 -72q120 -88 136 -256q-144 64 -176 128 q-48 56 -64 56q-80 0 -248 -192q-160 -176 -168 -296q8 -72 152 -168l328 -208q176 -112 184 -240q0 -48 -96 -56z" />
<glyph unicode="T" horiz-adv-x="1056" d="M512 -8h-112l-32 104v72v24v8q0 280 64 768q8 80 16 120v16q8 48 -40 40h-40h-48h-144h-48q-64 -8 -128 56q40 48 160 56l200 16h440q32 -8 104 0h48h32q8 0 64 8v-128h-176h-112h-72q-48 -8 -72 -8q-56 -136 -104 -736q-8 -152 -8 -288q0 -80 8 -128z" />
<glyph unicode="U" horiz-adv-x="944" d="M832 648l-40 -688q-96 16 -104 64l-8 16q-40 0 -120 -24q-104 -24 -160 -24q-176 0 -240 80q-72 96 -96 184l-16 128q0 160 32 376q24 216 56 448h96l48 -64l8 -32l-96 -600v-272q0 -32 48 -96q48 -56 128 -56q256 40 296 96q24 120 24 376q8 248 32 512q24 176 96 224 l80 -72l-32 -232q-16 -96 -24 -256q-8 -64 -8 -88z" />
<glyph unicode="V" horiz-adv-x="920" d="M464 -16h-16q-144 32 -272 472q-120 416 -128 736h96q40 -24 48 -56l56 -296q8 -40 16 -104l24 -120q48 -256 152 -496q264 616 304 1136q96 -24 104 -32q24 -24 24 -48v-56q-40 -192 -88 -384q-48 -176 -120 -392q-64 -216 -112 -296q-48 -64 -88 -64z" />
<glyph unicode="W" horiz-adv-x="1440" d="M736 56l-72 120q-8 -8 -24 -40q-96 -136 -192 -136q-160 0 -256 120q-104 136 -88 480v24v176l40 280q16 128 48 200l72 -32q56 -40 56 -88q-32 -160 -72 -328q-32 -176 -32 -392q0 -128 48 -240q40 -96 136 -96q112 0 160 112q56 128 80 368l48 520q80 -40 96 -56 q32 -16 40 -64q-48 -272 -56 -552q0 -216 40 -288q32 -72 128 -80q112 0 184 184q96 216 72 680v112v72q0 24 8 72q8 32 8 48h24q112 16 112 -64v-168q0 -64 -8 -136q0 -80 -24 -248q-8 -176 -96 -408t-264 -232q-136 0 -216 80z" />
<glyph unicode="X" horiz-adv-x="936" d="M424 760l400 568l24 -24q64 -48 64 -112l-120 -152q-256 -304 -304 -408l80 -176q56 -112 272 -432q-184 32 -296 256q-88 160 -136 224q-88 -104 -288 -456q-56 -96 -72 -128l-24 104q0 112 96 264l224 352q0 48 -104 232q-128 232 -184 360h152z" />
<glyph unicode="Y" horiz-adv-x="1016" d="M832 -56l-64 -16l-72 -304q-96 -256 -352 -256q-256 16 -272 192q8 136 248 280q200 128 344 160l-16 96q-16 -8 -40 -24q-128 -64 -208 -64q-216 0 -280 152q-64 144 -64 352q8 512 104 720l72 -8q48 0 48 -88q-32 -128 -56 -264q-48 -200 -48 -408q-8 -360 192 -352 q16 0 120 48l48 24q120 56 120 96l8 456l24 248q24 152 56 248h120v-104q-24 -80 -48 -264q-48 -248 -40 -640v-184h32l72 8q56 8 128 -48zM648 -168v56q-144 -48 -296 -152q-152 -112 -160 -168q0 -16 48 -48q56 -24 104 -24q152 0 208 88q64 168 96 248z" />
<glyph unicode="Z" horiz-adv-x="992" d="M144 104l776 8l-40 -96l-752 -40q-64 0 -112 16q-24 16 -24 80q0 112 128 280q72 80 208 232q136 160 200 232q200 216 256 296q-40 0 -104 -8h-96q-112 -8 -184 -8h-40q-120 8 -176 -16h-152l40 80q56 40 112 40l152 8h56q32 8 96 16q248 40 392 40q8 0 32 -8 q112 -16 112 -88l-304 -304q-24 -24 -80 -88q-64 -72 -104 -112q-344 -376 -392 -560z" />
<glyph unicode="[" horiz-adv-x="416" d="M104 -304v1640h360v-112h-208v-1416h208v-112h-360z" />
<glyph unicode="\" horiz-adv-x="1200" d="M456 800l-176 192l-144 152q-72 80 -72 144l32 24q8 8 32 8q16 0 24 -8q96 -72 248 -240q56 -64 144 -176q56 -64 72 -88q264 -304 400 -504q120 -152 120 -256l-64 -72q-48 48 -120 176l-48 72q-72 112 -144 216q-136 184 -304 360z" />
<glyph unicode="]" horiz-adv-x="536" d="M128 -304v112h208v1416h-208v112h360v-1640h-360z" />
<glyph unicode="^" horiz-adv-x="1144" d="M904 280l-288 584l-296 -584h-176l408 808h128l408 -808h-184z" />
<glyph unicode="_" horiz-adv-x="944" d="M-16 -272v160h1072v-160h-1072z" />
<glyph unicode="`" horiz-adv-x="560" d="M504 904h-64l-216 120q-88 56 -128 80q-56 88 48 128q56 0 80 -32l24 -24q120 -128 256 -272z" />
<glyph unicode="a" horiz-adv-x="1024" d="M744 0h-24q-96 0 -136 48l-48 72q-128 -120 -216 -120q-240 8 -248 216q8 104 128 304q128 208 256 208q40 0 128 -72l24 -24l40 56l72 -64q0 -104 -32 -216q-32 -160 -32 -224q0 -80 40 -80l72 16l192 48l-136 -144q-32 -24 -80 -24zM536 560q-32 24 -48 24 q-120 -16 -264 -296q-24 -56 -24 -88q-8 -88 48 -88q304 8 312 392q0 24 -24 56z" />
<glyph unicode="b" horiz-adv-x="832" d="M224 40l-144 -16q40 112 64 352q0 24 8 72q24 96 24 192q8 80 16 216q8 72 8 104l24 368l40 16h24q104 0 104 -104l-48 -264q-40 -288 -64 -504q0 8 8 24q80 216 224 208q80 -24 160 -96t80 -264q0 -168 -80 -264q-72 -88 -232 -80q-72 0 -200 32q8 0 -16 8zM288 136h32 q24 -8 40 -8l96 -16q152 0 152 248q0 104 -32 176q-16 64 -40 64q-88 0 -152 -176z" />
<glyph unicode="c" horiz-adv-x="864" d="M696 72q-96 -88 -272 -80q-120 0 -216 40q-112 80 -112 224q0 152 104 304q104 168 224 168q144 8 216 -256q-104 40 -160 80q-32 32 -48 32q-8 0 -56 -56q-32 -40 -56 -64q-96 -136 -96 -256q0 -112 160 -112q88 0 192 48q104 16 200 304q0 -304 -80 -376z" />
<glyph unicode="d" horiz-adv-x="920" d="M592 24l-56 56q-128 -80 -304 -80q-224 0 -232 208q0 192 192 400q72 80 144 80h24q24 0 72 -8q-24 8 16 -8q24 0 64 -24l88 664h184l-56 -232q-32 -136 -72 -408q-32 -232 -32 -376q0 -120 16 -176q0 -24 48 -32l56 24q56 40 184 56l-104 -128q-32 -40 -104 -40t-128 24 zM488 272v32v32v24q0 88 -8 136q8 80 -64 72q-88 0 -200 -136q-112 -112 -88 -272q24 -64 72 -80q96 0 200 72q88 48 88 80v40z" />
<glyph unicode="e" horiz-adv-x="792" d="M216 280h-8v-24q0 -160 160 -160q120 0 296 72q40 24 64 32v-96q-104 -72 -184 -104q-88 -24 -160 -24q-120 0 -208 72q-104 96 -104 240q0 160 88 296q104 160 224 160q200 -16 224 -264q-24 -216 -248 -240q-64 0 -144 40zM232 376l24 -8q24 -8 48 -8q152 16 168 168 q0 80 -56 80q-64 0 -136 -112q-8 -16 -24 -40l-24 -72v-8z" />
<glyph unicode="f" horiz-adv-x="664" d="M80 -240l-8 352l32 320q0 16 16 136q56 592 80 616q32 0 72 -8h32q8 -16 32 -88l-104 -720q40 -56 48 -64q16 -8 64 -8q72 0 248 112q32 24 48 32q-96 -192 -176 -216q-16 -8 -72 -24q-32 -8 -48 -16q32 -96 80 -184q48 -176 48 -328q-16 -296 -168 -304q-96 0 -160 112 t-64 280zM232 168l-16 -112l-8 -160q0 -216 24 -320q8 -72 72 -96q32 32 32 72q16 48 16 168q0 184 -56 312q-16 48 -48 112q-16 16 -16 24z" />
<glyph unicode="g" horiz-adv-x="792" d="M640 -104v-80q-8 -392 -304 -432l-144 -16h-24q-208 0 -208 160q-8 144 224 280l328 176v88q-112 -80 -224 -72q-176 0 -184 208q0 144 112 312q128 168 248 168q40 0 112 -48l8 8l32 48q32 -8 56 -24q8 -8 16 -8q24 -24 32 -64l-80 -304v-296l24 8q32 0 56 -16h8 q32 -16 128 -32l-184 -48q-8 0 -16 -8q-8 0 -16 -8zM480 560h-16q-232 -168 -264 -368q0 -48 24 -72l24 -16h48h32h8q0 8 16 8q96 56 160 144q40 48 40 248q0 8 -24 32q-8 0 -8 8q-24 16 -40 16zM488 -320l16 152l-208 -120q-168 -80 -216 -192l8 -8q64 -48 136 -40 q112 -8 176 64q80 64 88 144z" />
<glyph unicode="h" horiz-adv-x="840" d="M32 96l8 32l96 1224q96 -8 112 -32q24 -16 32 -64l-16 -112v-104l-56 -464q0 8 8 16q64 80 136 88q216 -8 224 -280l-8 -96v-16q-32 -216 32 -224q80 56 208 48q0 -8 -8 -16q-80 -96 -96 -96q-40 -40 -88 -40q-192 24 -176 360v72v56q0 80 -16 104q0 16 -32 16 q-104 0 -160 -200q-48 -168 -88 -392q-8 8 -32 24q-56 40 -72 72z" />
<glyph unicode="i" horiz-adv-x="504" d="M312 792q-32 -24 -88 -24q-112 16 -128 96q0 32 48 64l8 8h16q16 8 24 8q24 8 40 8q48 0 72 -8q48 -24 48 -80q0 -48 -40 -72zM160 8l-64 80q-24 32 -32 80q-8 104 0 200q8 80 32 240q8 80 16 120q72 0 104 -24q40 -24 40 -80q-8 -8 -8 -32q-8 -40 -16 -64t-16 -56 q-32 -168 -32 -280t88 -112l48 32l128 80v-144l-96 -48q-48 -8 -88 -8q-56 0 -104 16z" />
<glyph unicode="j" horiz-adv-x="632" d="M552 768q-32 -32 -72 -32q-40 8 -64 32q-40 24 -40 72q0 24 40 64q40 24 72 24q40 0 64 -16q48 -40 40 -88q0 -32 -40 -56zM88 -480h-16q-168 16 -176 144q0 120 160 240l296 168l8 40v88v112l40 392q104 0 128 -24l40 -72q-56 -32 -80 -152q-16 -160 -16 -360h16 q48 8 88 -56q-40 -40 -96 -40h-8q0 -224 -64 -328q-56 -112 -320 -152zM360 -104v72q-240 -128 -360 -304q40 -32 56 -40q280 32 304 272z" />
<glyph unicode="k" horiz-adv-x="856" d="M432 48l-88 136q-96 -32 -120 -56l-8 -72v-8q8 -48 -40 -56l-80 8l48 824l8 424l112 -16q64 -8 64 -72q-8 -80 -32 -248q-40 -264 -48 -392l8 16q104 160 200 176q88 8 128 -64q24 -48 48 -120q0 -80 -160 -264l-16 -16q24 -48 64 -104q24 -48 96 -48l40 -8h24l160 32 q-128 -120 -152 -120q-8 0 -16 -8q-32 -8 -64 -8h-40q-16 8 -40 16q-72 16 -96 48zM480 592l-8 8q-136 -96 -232 -368l48 48q80 64 112 104q96 104 88 176q0 8 -8 24v8z" />
<glyph unicode="l" horiz-adv-x="672" d="M72 216l-8 96v48l8 40q0 240 112 560q112 328 224 328q128 0 120 -264q-32 -696 -304 -712h-16q-16 -224 176 -216q48 0 88 16q16 -16 104 232q0 -296 -48 -320q-56 -40 -168 -32q-192 8 -256 120q0 16 -16 56q-8 32 -16 48zM216 520v-40q0 -8 8 -24v-24l8 -8 q152 56 176 632v56q-40 -32 -88 -176q-72 -200 -104 -416z" />
<glyph unicode="m" horiz-adv-x="1384" d="M1344 208l-64 -208q-32 -48 -136 -48q-208 0 -208 232v40q0 32 8 128q8 40 8 48v64q0 120 -16 144t-40 24q-72 0 -192 -272q-8 -24 -16 -64q-24 -88 -40 -136q-24 -136 -88 -152q-80 0 -64 240v24v16q32 344 -48 344l-64 -64q-56 -64 -120 -208q-64 -152 -64 -376l-80 8 l-80 -8q8 24 16 120q56 320 56 440q8 88 -48 176l120 16q24 0 48 -24q16 -40 16 -120q96 152 200 160q144 0 168 -272q16 32 48 88q24 40 56 88q64 96 160 96q120 0 168 -96q56 -104 40 -256v-96q0 -24 -8 -56t-8 -48q-16 -88 8 -128q0 -16 40 -16q32 0 56 16q8 -8 168 136z " />
<glyph unicode="n" horiz-adv-x="936" d="M848 152l40 -40h-16l24 32q0 -48 -8 -88q-16 -64 -176 -64q-200 0 -200 272v56q0 64 16 160v24q0 72 -16 112v8q-16 16 -48 16q-72 0 -176 -192q-96 -200 -96 -472h-152q40 288 40 504v24v24q0 120 -8 232l176 -40v-88q-8 -16 -8 -48v-8q0 8 8 16q96 168 216 160 q208 0 184 -376v-32q-16 -136 8 -200q16 -24 48 -24q144 0 144 32z" />
<glyph unicode="o" horiz-adv-x="784" d="M584 640v-16v-8q88 -48 104 -128q24 -56 16 -120q0 -112 -48 -232q-56 -136 -200 -152q-16 0 -40 -8h-24q-72 0 -152 32q-160 64 -160 288q0 120 88 288q104 184 232 184q144 -8 184 -128zM472 608q0 8 -8 8q0 8 -32 8t-128 -120t-96 -272q8 -136 144 -144q96 0 152 112 q72 120 64 224q0 48 -40 64q-16 8 -24 8q-32 40 -40 72q0 8 8 24v16z" />
<glyph unicode="p" horiz-adv-x="832" d="M328 0l-56 8q-32 -120 -64 -544v-56l-96 40q-24 24 -24 120v56q0 40 24 280q24 208 40 272l32 544q16 0 40 -8q104 -16 96 -104l-8 -56q96 200 224 192q72 -24 144 -80q72 -64 72 -232q-16 -440 -344 -448q-24 0 -80 16zM592 576q-24 40 -56 40q-64 0 -152 -176 q-72 -176 -80 -312q80 0 152 -24q144 8 152 328q8 88 -16 144z" />
<glyph unicode="q" horiz-adv-x="840" d="M488 -488v32v48q0 64 16 192q-16 -88 0 16v40q16 88 16 184l-96 -24l-120 -8q-224 16 -248 232q0 120 112 304q112 192 280 192q40 0 120 -40l48 -24v72q96 -8 120 -24q48 -16 48 -72l-48 -176q-16 -32 -32 -152q-8 -40 -8 -64q-16 -56 -32 -128q-8 -48 -8 -56 q-32 -216 -32 -432q0 -72 32 -232q8 -32 8 -48q-24 8 -56 24q-80 24 -96 40q-24 24 -24 104zM544 568q-24 40 -64 40q-72 0 -184 -144q-112 -152 -112 -248q0 -112 120 -112q152 0 216 80q56 88 56 288q0 48 -32 96z" />
<glyph unicode="r" horiz-adv-x="816" d="M560 104l40 16q8 32 184 24l-8 -8q-128 -136 -184 -136h-24q-120 -16 -168 56q-32 72 -32 264v40q0 72 24 136l-8 -8l-56 8q-8 0 -40 -112q-88 -384 -200 -384h-56q160 392 152 656v136l112 -24q32 -8 40 -48l8 -96l8 -16q24 0 72 48q56 56 80 56q72 -16 64 -80 q-8 -24 -16 -80q-56 -256 -56 -352q0 -56 24 -72q8 -24 40 -24z" />
<glyph unicode="s" horiz-adv-x="656" d="M200 56l-144 -56l160 352q56 128 56 320l8 32l8 8q8 0 -16 40l144 48v-88v-24q0 -136 88 -328q104 -208 104 -256q8 -120 -128 -112h-32q-88 0 -176 32q-56 32 -72 32zM408 280l-48 104q-24 -48 -64 -144q-24 -56 -32 -80q8 0 40 -24q88 -56 96 -56q40 0 56 56 q0 40 -48 144z" />
<glyph unicode="t" horiz-adv-x="872" d="M224 400v80v24q8 88 -8 104q8 8 -184 88l200 32q8 0 16 8q16 0 24 8q8 48 16 136q40 304 40 472q128 0 136 -8q40 -16 40 -88v-16l-96 -504l32 -8h56l80 8h72q32 16 200 -48l-440 -80q-40 -32 -40 -288q0 -168 16 -192q0 -16 120 -16q56 0 136 48q80 40 120 40h72 q-64 -152 -160 -168q-40 -16 -112 -32q-40 0 -56 -8q-232 24 -264 240q-16 72 -16 168z" />
<glyph unicode="u" horiz-adv-x="808" d="M96 760h168l-64 -392l-8 -40q-8 -104 40 -168q32 -72 144 -72q40 0 96 32l64 40l32 288v168q8 112 8 176l96 -16h8l64 32l-16 -160l-24 -208l-16 -176l-8 -56q-8 -136 104 -136h40l40 8l120 -24l-152 -72q-40 -24 -88 -24h-24q-32 8 -112 48q-16 8 -24 16 q-16 -16 -32 -16q-96 -24 -200 -24q-232 8 -280 160q-16 64 -16 128q0 40 16 120q24 232 24 368z" />
<glyph unicode="v" horiz-adv-x="704" d="M136 808l40 -48q8 -24 8 -64v-48q0 -24 -16 -64q-8 -40 -8 -112q0 -208 48 -312q32 -56 64 -56l48 32q24 16 96 144q56 136 56 192q0 64 -16 120l-16 96q0 64 48 72l40 8q64 0 80 -56l8 -48v-40v-88v-24l120 -16l24 -104l-160 -24q-96 -280 -288 -376q-232 48 -280 264 q-8 112 -8 200q0 144 16 240q24 120 96 112z" />
<glyph unicode="w" horiz-adv-x="1168" d="M456 448l-8 80l8 112v16q24 56 64 136q24 -40 32 -56q56 0 64 -72v-24l-16 -176v-152q-8 -128 8 -192q-8 -24 104 -24q80 0 128 192q8 24 16 40q0 16 16 56q8 48 16 72q0 16 -8 56q-16 56 -24 192q-8 40 -8 64h136q40 -72 48 -168q8 -64 40 -72q8 0 16 8t16 8l144 128 l-56 -216q-8 -8 -16 -8q-40 -24 -72 -40l-48 -8h-32q8 0 8 8v-8q-8 -16 -16 -48q-16 -88 -64 -224q-64 -160 -232 -152q-88 0 -160 56q-40 40 -64 56q-88 -88 -224 -88q-224 0 -240 296q-16 96 -16 216q0 24 24 88q8 24 8 32q-8 128 96 200q88 -48 80 -96q-64 -168 -64 -416 q0 -72 24 -168q0 -40 48 -40q120 0 168 72q56 72 56 232v32z" />
<glyph unicode="x" horiz-adv-x="680" d="M304 120l-40 32q-40 -32 -64 -96q-24 -56 -200 -128q16 32 56 88q32 64 120 232q8 16 16 24l-96 264l-64 -48v152l40 72l64 80q120 -48 128 -136l-16 -56v-88q0 -88 8 -128q24 40 80 128q128 232 256 304l24 -72l8 -48q-24 -32 -80 -104q-48 -72 -80 -112 q-144 -200 -144 -240q8 -24 152 -40q72 0 136 40q72 56 200 72q-64 -128 -152 -184q-80 -48 -176 -48q-104 0 -176 40z" />
<glyph unicode="y" horiz-adv-x="768" d="M504 32l-152 -32q-168 0 -240 80q-24 40 -32 72q0 136 8 264q0 24 8 80q0 56 8 80q24 96 48 112l32 16q48 0 64 -24q0 -8 8 -16q24 -16 24 -48q0 -8 -8 -40q-72 -240 -72 -336q0 -72 24 -104q16 -24 72 -24q184 32 224 72q0 72 16 216q8 72 8 112q24 192 96 216 q8 -8 24 -8q64 -24 64 -80q-8 -24 -24 -88q-48 -168 -56 -248l-8 -168v-96v-56v-24h48l128 -8q-48 -112 -152 -104h-8q-8 8 -16 8v-88q-8 -56 -8 -80q16 -224 -200 -336q-144 -80 -288 -80q-96 0 -168 40q-104 48 -104 160q0 96 208 256q200 144 424 208v96zM504 -296v112 q-152 -40 -312 -176q-152 -112 -192 -192q-8 -16 24 -48q64 -24 112 -24q112 0 240 96t128 232z" />
<glyph unicode="z" horiz-adv-x="856" d="M624 -128v-32l8 -56l-8 -88q0 -48 -48 -152q-40 -128 -160 -176q-104 -48 -224 -72q-96 24 -184 64q-96 48 -96 144q0 152 168 272l392 176q-48 80 -168 64q-32 0 -64 -8h-24l-48 -8h-128l64 80l32 32q80 32 208 152t136 232q0 88 -120 96q-32 0 -88 -24q-64 -24 -96 -24 q-48 0 -104 40q-16 8 -24 16q136 128 288 120q256 -24 280 -256q-24 -184 -200 -336q144 -64 168 -152h24q24 8 64 8q48 8 72 8t64 -8q-8 0 8 -8q24 -8 144 -152l-216 48h-56h-56h-8zM488 -176q-128 -24 -296 -136q-176 -112 -184 -184q8 -24 88 -48q56 -24 88 -24 q144 0 200 64q80 72 96 216q8 56 8 112z" />
<glyph unicode="{" horiz-adv-x="512" d="M576 -224v-80q-408 -24 -344 456q8 96 8 144q0 152 -216 200q-16 8 -24 8q16 0 40 8q208 48 200 208q0 48 -8 152q-64 488 344 464v-88q-216 -32 -192 -384q32 -288 -96 -360q120 -64 96 -352q-24 -344 192 -376z" />
<glyph unicode="|" horiz-adv-x="448" d="M144 -40v1424h160v-1424h-160z" />
<glyph unicode="}" horiz-adv-x="512" d="M0 1248v88q400 24 336 -464q-8 -96 -8 -152q0 -144 216 -208q16 -8 32 -8q-8 0 -24 -8q-240 -32 -224 -200q0 -48 8 -144q64 -480 -336 -456v80q216 32 184 368q-32 296 96 360q-128 72 -96 368q32 344 -184 376z" />
<glyph unicode="~" horiz-adv-x="1256" d="M1128 624q-80 -208 -280 -232q-56 0 -176 96q-112 96 -176 88q-80 0 -240 -136q-72 -56 -88 -64t-24 0q-48 88 32 176q8 0 8 -16q0 -24 8 -24q24 0 120 64q128 88 176 88q56 0 184 -96t176 -96q160 -8 264 176q8 8 16 0t0 -24z" />
<glyph unicode="&#xa4;" d="M1024 888q-344 -32 -376 -384q32 -344 376 -376q344 32 376 376q-32 352 -376 384zM544 128l72 72q-96 120 -96 304q0 192 96 312l-72 72q-24 32 -24 56q8 56 64 72q24 0 48 -24l88 -88q112 112 304 112t304 -112l88 88q24 24 48 24q56 -16 64 -72q0 -24 -24 -56l-72 -72 q96 -120 96 -312q0 -184 -96 -304l72 -72q24 -24 24 -56q-8 -56 -64 -72q-24 0 -48 24l-88 88q-112 -112 -304 -112t-304 112l-88 -88q-24 -24 -48 -24q-56 16 -64 72q0 32 24 56z" />
<glyph unicode="&#xa7;" d="M1352 160l-104 -16l8 8q-16 -8 -40 -8q-96 0 -192 16h-8l248 -152q176 -80 176 -192q-8 -48 -88 -64l-104 -8h8h-40q-56 0 -168 16q-56 8 -80 8q-264 40 -360 160l352 -56q120 -16 240 -16q56 -8 64 0q8 0 8 8q0 56 -192 136q-40 24 -112 64q-80 40 -168 96t-88 208 q0 96 80 208v16q-80 56 -80 192q0 128 168 320q168 184 304 184q24 8 128 -64q96 -56 128 -216q-120 48 -168 112q-40 40 -56 48q-72 8 -240 -160q-152 -176 -152 -264q8 -64 144 -136l296 -176q176 -104 176 -216q-8 -56 -88 -56zM840 296l128 -24q112 -16 232 -16h8 q48 -8 56 0q8 0 8 16q-8 48 -184 144q-104 64 -40 24q-64 40 -136 72l-8 -8q-80 -104 -80 -176q0 -8 8 -24z" />
<glyph unicode="&#xa8;" d="M856 1072q96 -8 104 -104q-8 -96 -104 -104q-96 8 -104 104q8 96 104 104zM1192 1072q96 -8 104 -104q-8 -96 -104 -104q-96 8 -104 104q8 96 104 104z" />
<glyph unicode="&#xad;" horiz-adv-x="712" d="M576 488l-40 -24h-80q-88 -8 -136 -8l-168 -16q-40 16 -40 64q0 56 56 104l120 -16h112q104 0 144 16q72 -48 64 -72q0 -24 -32 -48z" />
<glyph unicode="&#xb0;" d="M280 1408q-104 -8 -112 -104q8 -96 112 -104q96 8 104 104q-8 96 -104 104zM280 1472q144 -16 160 -168q-16 -152 -160 -168q-152 16 -168 168q16 152 168 168z" />
<glyph unicode="&#xb1;" d="M1344 720l-8 -16v8q-8 -16 -40 -24l-8 -8h-40l-72 -8l-80 -8l-16 -304q-96 16 -104 96q0 48 -8 72l-8 128h-56q-40 -8 -64 -8l-112 -8q-32 16 -32 48q0 48 48 72l216 8l-8 56v80q0 72 24 88q72 0 96 -8h-8q64 -16 32 -208v-8l192 8h16q40 -16 40 -40v-16zM1320 192 l-56 -16q-64 0 -208 -8q-48 -8 -80 -8l-224 -8q-48 8 -56 56q0 56 80 80l160 -8h152q136 0 184 16q88 -40 80 -64q0 -16 -32 -40z" />
<glyph unicode="&#xb7;" d="M1016 552q-168 8 -168 184q24 136 168 144q144 -8 168 -152q-8 -168 -168 -176z" />
<glyph unicode="&#xd7;" d="M1072 632v-8l40 -40q96 -96 152 -168l40 -40q40 -40 40 -72l-32 -40q-48 -32 -144 80q-40 56 -104 120q-48 40 -72 72h-8q-80 -88 -144 -200q-48 -64 -96 -80l-40 32q0 64 48 136q64 80 160 192v8l-192 192q-16 16 -8 80v24q8 8 40 16h24l16 -8q48 -40 136 -144 q40 -40 56 -64q8 0 8 -8h8q8 24 32 40q104 112 200 192q16 8 32 8q32 -8 40 -16v-32q8 -48 -8 -64q-32 -32 -112 -104q-72 -64 -112 -104z" />
<glyph unicode="&#xe0;" d="M1248 0h-16q-96 0 -136 48l-48 72l-8 -8q-136 -112 -208 -112q-240 8 -256 216q0 104 136 304q128 208 256 208q40 0 128 -72l24 -24l40 56l72 -64q0 -40 -16 -128q-16 -56 -16 -88q-40 -160 -40 -224q0 -80 48 -80l64 16l200 48l-144 -144q-32 -24 -80 -24zM1040 560 q-24 24 -40 24q-120 -16 -264 -296q-24 -56 -24 -88q-8 -88 48 -88q304 8 312 392q0 24 -32 56zM1208 824h-64q-72 40 -192 112q-104 64 -152 96q-64 80 40 128q56 0 88 -40q88 -88 256 -272q-112 128 24 -24z" />
<glyph unicode="&#xe1;" d="M1248 0h-16q-96 0 -136 48l-48 72l-8 -8q-136 -112 -208 -112q-240 8 -256 216q0 104 136 304q128 208 256 208q40 0 128 -72l24 -24l40 56l72 -64q0 -40 -16 -128q-16 -56 -16 -88q-40 -160 -40 -224q0 -80 48 -80l64 16l200 48l-144 -144q-32 -24 -80 -24zM1040 560 q-24 24 -40 24q-120 -16 -264 -296q-24 -56 -24 -88q-8 -88 48 -88q304 8 312 392q0 24 -32 56zM1256 1176h64l-24 -24q-112 -128 -256 -272q-40 -40 -80 -40q-104 40 -48 128l240 144q72 40 104 64z" />
<glyph unicode="&#xe8;" d="M840 280h-8v-24q8 -152 160 -160q120 0 296 72q40 24 64 32v-96q-104 -72 -184 -104h-16q-64 -24 -144 -24q-112 0 -208 72q-104 96 -104 240t96 296q96 160 216 160q208 -16 224 -264q-24 -216 -248 -240q-64 0 -144 40zM864 376l16 -8q24 -8 48 -8q152 16 168 168 q0 80 -48 80q-64 0 -136 -112q-32 -56 -56 -104zM1208 824h-64q-72 40 -192 112q-104 64 -152 96q-64 80 40 128q56 0 88 -40q88 -88 256 -272q-112 128 24 -24z" />
<glyph unicode="&#xe9;" d="M840 280h-8v-24q8 -152 160 -160q120 0 296 72q40 24 64 32v-96q-104 -72 -184 -104h-16q-64 -24 -144 -24q-112 0 -208 72q-104 96 -104 240t96 296q96 160 216 160q208 -16 224 -264q-24 -216 -248 -240q-64 0 -144 40zM864 376l16 -8q24 -8 48 -8q152 16 168 168 q0 80 -48 80q-64 0 -136 -112q-32 -56 -56 -104zM1256 1176h64l-24 -24q-112 -128 -256 -272q-40 -40 -80 -40q-104 40 -48 128l240 144q72 40 104 64z" />
<glyph unicode="&#xea;" d="M840 280h-8v-24q8 -152 160 -160q120 0 296 72q40 24 64 32v-96q-104 -72 -184 -104h-16q-64 -24 -144 -24q-112 0 -208 72q-104 96 -104 240t96 296q96 160 216 160q208 -16 224 -264q-24 -216 -248 -240q-64 0 -144 40zM864 376l16 -8q24 -8 48 -8q152 16 168 168 q0 80 -48 80q-64 0 -136 -112q-32 -56 -56 -104zM1288 808h-64l-208 216l-208 -216h-64l208 344h128z" />
<glyph unicode="&#xec;" d="M936 8l-64 80q-24 32 -32 80q-8 80 -8 200q24 184 56 360q72 0 104 -24q40 -24 40 -80q-8 -8 -24 -96q-48 -176 -48 -336q0 -112 88 -112l40 32l128 80v-144l-96 -48q-48 -8 -80 -8q-64 0 -104 16zM1208 824h-64q-72 40 -192 112q-104 64 -152 96q-64 80 40 128 q56 0 88 -40q88 -88 256 -272q-112 128 24 -24z" />
<glyph unicode="&#xed;" d="M936 8l-64 80q-24 32 -32 80q-8 80 -8 200q24 184 56 360q72 0 104 -24q40 -24 40 -80q-8 -8 -24 -96q-48 -176 -48 -336q0 -112 88 -112l40 32l128 80v-144l-96 -48q-48 -8 -80 -8q-64 0 -104 16zM1216 1176h64l-24 -24q-112 -128 -256 -272q-32 -40 -88 -40 q-104 48 -40 128l240 144q72 40 104 64z" />
<glyph unicode="&#xf2;" d="M1216 640v-16v-8q88 -48 104 -128q16 -56 16 -120q0 -112 -48 -232q-56 -136 -200 -152q-16 0 -40 -8h-24q-72 0 -152 32q-160 64 -160 288q0 120 88 288q104 184 232 184q136 -8 184 -128zM1104 608q0 8 -8 8h-8q-16 8 -24 8q-32 0 -128 -120q-104 -128 -104 -272 q8 -136 152 -144q96 0 152 112q64 120 64 224q0 48 -40 64q-16 8 -24 8q-40 40 -40 72q0 24 8 40zM1208 824h-64q-72 40 -192 112q-104 64 -152 96q-64 80 40 128q56 0 88 -40q88 -88 256 -272q-112 128 24 -24z" />
<glyph unicode="&#xf3;" d="M1216 640v-16v-8q88 -48 104 -128q16 -56 16 -120q0 -112 -48 -232q-56 -136 -200 -152q-16 0 -40 -8h-24q-72 0 -152 32q-160 64 -160 288q0 120 88 288q104 184 232 184q136 -8 184 -128zM1104 608q0 8 -8 8h-8q-16 8 -24 8q-32 0 -128 -120q-104 -128 -104 -272 q8 -136 152 -144q96 0 152 112q64 120 64 224q0 48 -40 64q-16 8 -24 8q-40 40 -40 72q0 24 8 40zM1256 1176h64l-24 -24q-112 -128 -256 -272q-40 -40 -80 -40q-104 40 -48 128l240 144q72 40 104 64z" />
<glyph unicode="&#xf7;" d="M1288 488l-48 -16q-56 0 -184 -8q-48 -8 -80 -8l-208 -16q-32 24 -48 64q0 56 72 104l152 -16h136q120 0 176 16q72 -40 72 -72q0 -24 -40 -48zM1056 704l-48 -16q-48 0 -80 48l-8 40q0 48 32 72q24 16 48 16q88 0 96 -88q8 -48 -40 -72zM1056 184l-48 -8q-48 0 -80 48 l-8 32q0 56 32 80q24 16 48 16q88 0 96 -88q8 -48 -40 -80z" />
<glyph unicode="&#xf9;" d="M600 760h160l-56 -392l-8 -40q-8 -104 32 -168q40 -72 152 -72q32 0 88 32l72 40l24 288q0 56 8 168t8 176l88 -16h16l64 32l-24 -160l-16 -208l-24 -176v-56q-8 -136 104 -136h40l40 8l120 -24l-152 -72q-40 -24 -88 -24h-24q-56 16 -136 64q-8 0 -8 -8q-8 -8 -32 -8 q-96 -24 -192 -24q-240 16 -280 160q-16 64 -16 128q0 40 16 120q24 232 24 368zM1112 872h-64l-216 120q-88 56 -128 80q-56 88 48 128q56 0 80 -40q152 -144 280 -288z" />
<glyph unicode="&#xfa;" d="M600 760h160l-56 -392l-8 -40q-8 -104 32 -168q40 -72 152 -72q32 0 88 32l72 40l24 288q0 56 8 168t8 176l88 -16h16l64 32l-24 -160l-16 -208l-24 -176v-56q-8 -136 104 -136h40l40 8l120 -24l-152 -72q-40 -24 -88 -24h-24q-56 16 -136 64q-8 0 -8 -8q-8 -8 -32 -8 q-96 -24 -192 -24q-240 16 -280 160q-16 64 -16 128q0 40 16 120q24 232 24 368zM1192 1208h64l-24 -24q-112 -128 -256 -272q-32 -32 -88 -32q-104 40 -40 120q168 112 344 208z" />
<glyph unicode="&#xfc;" d="M600 760h160l-56 -392l-8 -40q-8 -104 32 -168q40 -72 152 -72q32 0 88 32l72 40l24 288q0 56 8 168t8 176l88 -16h16l64 32l-24 -160l-16 -208l-24 -176v-56q-8 -136 104 -136h40l40 8l120 -24l-152 -72q-40 -24 -88 -24h-24q-56 16 -136 64q-8 0 -8 -8q-8 -8 -32 -8 q-96 -24 -192 -24q-240 16 -280 160q-16 64 -16 128q0 40 16 120q24 232 24 368zM752 1072q80 -8 88 -96q-8 -88 -88 -96q-80 8 -88 96q8 88 88 96zM1128 1072q88 -8 96 -96q-8 -80 -96 -96q-80 8 -88 96q8 88 88 96z" />
<glyph unicode="&#x2000;" horiz-adv-x="808" vert-adv-y="0" />
<glyph unicode="&#x2001;" horiz-adv-x="1616" vert-adv-y="0" />
<glyph unicode="&#x2002;" horiz-adv-x="808" vert-adv-y="0" />
<glyph unicode="&#x2003;" horiz-adv-x="1616" vert-adv-y="0" />
<glyph unicode="&#x2004;" horiz-adv-x="538" vert-adv-y="0" />
<glyph unicode="&#x2005;" horiz-adv-x="404" vert-adv-y="0" />
<glyph unicode="&#x2006;" horiz-adv-x="269" vert-adv-y="0" />
<glyph unicode="&#x2007;" horiz-adv-x="269" vert-adv-y="0" />
<glyph unicode="&#x2008;" horiz-adv-x="202" vert-adv-y="0" />
<glyph unicode="&#x2009;" horiz-adv-x="323" vert-adv-y="0" />
<glyph unicode="&#x200a;" horiz-adv-x="89" vert-adv-y="0" />
<glyph unicode="&#x2010;" horiz-adv-x="712" d="M576 488l-40 -24h-80q-88 -8 -136 -8l-168 -16q-40 16 -40 64q0 56 56 104l120 -16h112q104 0 144 16q72 -48 64 -72q0 -24 -32 -48z" />
<glyph unicode="&#x2011;" horiz-adv-x="712" d="M576 488l-40 -24h-80q-88 -8 -136 -8l-168 -16q-40 16 -40 64q0 56 56 104l120 -16h112q104 0 144 16q72 -48 64 -72q0 -24 -32 -48z" />
<glyph unicode="&#x2012;" horiz-adv-x="712" d="M576 488l-40 -24h-80q-88 -8 -136 -8l-168 -16q-40 16 -40 64q0 56 56 104l120 -16h112q104 0 144 16q72 -48 64 -72q0 -24 -32 -48z" />
<glyph unicode="&#x2013;" horiz-adv-x="1238" d="M1068 488l-82 -24h-165q-181 -8 -280 -8l-347 -16q-82 16 -82 64q0 56 115 104l248 -16h231q214 0 296 16q149 -48 132 -72q0 -24 -66 -48z" />
<glyph unicode="&#x2014;" d="M0 760h2040v-88h-2040v88z" />
<glyph unicode="&#x2018;" d="M1624 1616l24 -24q-152 -120 -160 -272h56q120 -8 120 -136q-16 -112 -144 -120q-144 16 -152 184q40 240 256 368z" />
<glyph unicode="&#x2019;" d="M408 1040l-24 24q160 136 152 272h-48q-128 8 -128 136q16 112 144 120q152 -16 160 -184q8 -248 -256 -368z" />
<glyph unicode="&#x201c;" d="M1864 1584l32 -16l-16 -16q-136 -136 -136 -232q0 -16 40 -24q32 -8 40 -16q80 -48 56 -144q-32 -80 -128 -64q-296 160 112 512zM1440 1584l32 -16q-8 -8 -24 -32q-120 -128 -120 -216q-8 -16 40 -24q32 -8 40 -16q80 -48 56 -144q-32 -80 -128 -64q-296 160 104 512z " />
<glyph unicode="&#x201d;" d="M192 1072l-24 16l16 16q136 136 136 232q0 8 -56 24q-24 8 -32 8q-80 48 -48 144q32 88 128 72q288 -168 -120 -512zM616 1072l-24 16q144 144 144 248q0 8 -56 24q-16 8 -24 8q-80 48 -56 144q32 88 128 72q296 -160 -112 -512z" />
<glyph unicode="&#x2026;" d="M1672 816q128 -8 136 -104q16 -136 -128 -144q-128 8 -128 144q16 104 120 104zM984 816q112 -8 136 -104q8 -128 -128 -144q-136 8 -120 152q16 96 112 96zM312 824q112 0 128 -104q16 -136 -120 -144q-136 8 -136 144q32 104 128 104z" />
<glyph unicode="&#x202f;" horiz-adv-x="323" vert-adv-y="0" />
<glyph unicode="&#x205f;" horiz-adv-x="404" vert-adv-y="0" />
<glyph unicode="&#x25fc;" horiz-adv-x="800" vert-adv-y="1600" d="M0 800h800v-800h-800v800z" />
</font>
</defs>
</svg>
