<?xml version="1.0" standalone="no"?>
<!DOCTYPE svg PUBLIC "-//W3C//DTD SVG 1.1//EN" "http://www.w3.org/Graphics/SVG/1.1/DTD/svg11.dtd" >
<svg xmlns="http://www.w3.org/2000/svg" xmlns:xlink="http://www.w3.org/1999/xlink" version="1.1">
<metadata></metadata>
<defs>
<font id="kaitiregular" horiz-adv-x="1024" vert-adv-y="2048" >
<font-face units-per-em="2048" ascent="1760" descent="-288" />
<missing-glyph horiz-adv-x="500" />
<glyph horiz-adv-x="0" vert-adv-y="0" />
<glyph horiz-adv-x="682" />
<glyph unicode=" " />
<glyph unicode="!" d="M376 136q-8 80 60 116t132 4t68 -108t-60 -116t-128 -8t-72 112zM392 1504h224l-48 -1080h-128z" />
<glyph unicode="&#x22;" d="M256 1448h192q-24 -104 -32 -208l-16 -208h-120l-8 256zM576 1448h192q-24 -104 -32 -208l-16 -208h-120l-8 256z" />
<glyph unicode="#" d="M40 408v152h176l48 336h-224v152h240l48 360h128l-48 -360h264l48 360h128l-48 -360h160v-152h-176l-48 -336h224v-152h-240l-48 -368h-128l48 368h-264l-48 -368h-128l48 368h-160zM344 560h264l48 336h-264z" />
<glyph unicode="$" d="M104 480h184q0 -200 56 -252t96 -52v520q-192 104 -248 188t-56 196q0 144 84 236t220 108v152h112v-152q136 0 220 -108t84 -268h-176q0 120 -44 172t-84 52v-448q128 -64 224 -160t96 -240q0 -208 -104 -304t-216 -96v-200h-112v200q-136 0 -236 112t-100 344z M304 1096q0 -56 24 -108t112 -100v384q-48 0 -92 -44t-44 -132zM552 176q48 8 96 48t48 160q0 88 -40 144t-104 104v-456z" />
<glyph unicode="%" d="M48 1064q0 232 68 296t132 64t132 -64t68 -296t-68 -296t-132 -64t-132 64t-68 296zM160 48l616 1376l64 -24l-616 -1376zM176 1064q0 -144 16 -192t56 -48t56 48t16 192t-16 192t-56 48t-56 -48t-16 -192zM552 384q0 232 68 296t132 64t132 -64t68 -296t-68 -296 t-132 -64t-132 64t-68 296zM680 384q0 -144 16 -192t56 -48t56 48t16 192t-16 192t-56 48t-56 -48t-16 -192z" />
<glyph unicode="&#x26;" d="M48 416q0 128 68 212t164 156q-40 88 -64 176t-24 160q0 144 84 224t204 80q104 0 176 -68t72 -196q0 -152 -84 -244t-188 -156q56 -96 116 -180t140 -172q24 56 32 108t8 132h160q0 -104 -20 -188t-60 -156q24 -24 68 -56t76 -48l-72 -160l-84 56t-76 64 q-64 -64 -136 -100t-168 -36q-160 0 -276 96t-116 296zM216 408q0 -120 72 -180t168 -60q56 0 96 24t80 72q-104 112 -176 208t-120 192q-64 -48 -92 -108t-28 -148zM344 1128q0 -56 12 -116t44 -132q64 32 120 100t56 180q0 56 -28 88t-76 32t-88 -40t-40 -112z" />
<glyph unicode="'" d="M352 1424h192q-24 -104 -32 -208l-16 -208h-120l-8 256z" />
<glyph unicode="(" d="M464 720q0 264 100 472t300 408l88 -88q-184 -176 -276 -364t-92 -428t92 -428t276 -356l-88 -88q-200 192 -300 400t-100 472z" />
<glyph unicode=")" d="M48 -64q184 168 276 356t92 428t-92 428t-276 364l88 88q200 -200 300 -408t100 -472t-100 -472t-300 -400z" />
<glyph unicode="*" d="M40 752l344 176l-344 176l80 144l328 -208l-16 384h160l-16 -384l328 208l80 -144l-344 -176l344 -176l-80 -144l-328 208l16 -408h-160l16 408l-328 -208z" />
<glyph unicode="+" d="M40 680v128h392v392h136v-392h392v-128h-392v-392h-136v392h-392z" />
<glyph unicode="," d="M112 -232q80 48 120 100t40 108q-8 32 -68 60t-60 108q0 32 16 68t88 60q88 8 136 -52t32 -140q-16 -120 -84 -212t-188 -140z" />
<glyph unicode="-" d="M40 680v128h912v-128h-912z" />
<glyph unicode="." d="M144 136q0 48 28 76t84 36q56 0 84 -32t28 -80q0 -56 -32 -84t-80 -28q-40 0 -76 28t-36 84z" />
<glyph unicode="/" d="M32 -8l848 1512l80 -48l-848 -1512z" />
<glyph unicode="0" d="M72 812q8 212 60 336t148 204t236 80t244 -116t136 -292t20 -404t-80 -372t-204 -200t-272 12t-192 180t-80 236t-16 336zM240 860q-24 -220 16 -392t132 -244t188 -28t140 176t44 288t-12 284t-72 232t-160 108t-176 -100t-100 -324z" />
<glyph unicode="1" d="M184 952v152q200 136 328 320h96v-1376h-160v1104q-104 -104 -264 -200z" />
<glyph unicode="2" d="M64 1072q64 184 164 268t236 92q80 8 144 -4t132 -56t112 -132t32 -212t-124 -296t-432 -540h576v-144h-808v32q8 120 112 216t264 300t208 316t36 192t-76 132t-148 44t-160 -64t-116 -168z" />
<glyph unicode="3" d="M80 392l144 24q32 -104 104 -172t180 -64t172 88t56 192t-84 168t-244 84v104q168 16 244 88t68 188t-104 168t-204 12t-172 -224l-144 24q48 144 132 240t228 112t252 -36t152 -160t12 -236t-184 -224q112 -48 172 -144t40 -252t-140 -252t-272 -92t-264 96t-144 268z " />
<glyph unicode="4" d="M24 352v136l648 936h120v-936h192v-136h-192v-304h-152v304h-616zM192 488h448v632z" />
<glyph unicode="5" d="M32 384l144 40q56 -216 192 -240t220 28t120 136t32 188t-56 176t-132 96t-180 0t-164 -112l-136 16q16 48 152 688h632v-144h-512q-40 -216 -80 -344q120 56 224 52t200 -48t140 -120t64 -152t16 -164t-36 -180t-96 -152t-156 -96t-212 -28t-228 88t-148 272z" />
<glyph unicode="6" d="M80 516q8 116 44 196t108 200l328 512h184l-336 -528q216 56 344 -16t172 -164t48 -200t-32 -212t-128 -188t-256 -92t-280 60t-160 192t-36 240zM248 444q8 -116 80 -192t192 -84t200 80t80 256t-100 232t-224 48t-180 -120t-48 -220z" />
<glyph unicode="7" d="M88 1256v144h856v-136q-376 -608 -496 -1216h-176q144 608 504 1208h-688z" />
<glyph unicode="8" d="M56 440q0 96 48 188t160 148q-96 56 -128 124t-36 156t24 152t84 120t124 76t148 20t144 -16t136 -68t104 -148t-4 -224t-188 -200q136 -40 192 -124t56 -204t-36 -192t-80 -120t-120 -76t-192 -28t-200 28t-140 84t-76 132t-20 172zM220 448q-4 -96 32 -168t132 -92 t200 4t144 112t28 176t-100 148t-192 52t-172 -72t-72 -160zM248 1072q0 -80 56 -152t176 -72t180 72t56 172t-72 148t-184 40t-164 -68t-48 -140z" />
<glyph unicode="9" d="M52 840q-28 144 4 260t100 192t164 108t172 32t156 -32t144 -96t88 -132t24 -176t-80 -276t-392 -696h-176q176 296 288 536q-200 -32 -332 52t-160 228zM212 920q12 -104 88 -172t164 -60t140 48t100 136q32 120 16 204t-84 140t-148 56q-48 8 -124 -24t-120 -128 t-32 -200z" />
<glyph unicode=":" d="M352 136q0 48 36 84t84 36t84 -36t36 -84q0 -56 -36 -92t-84 -36t-84 36t-36 92zM352 744q0 48 36 84t84 36t84 -36t36 -84q0 -56 -36 -92t-84 -36t-84 36t-36 92z" />
<glyph unicode=";" d="M320 -224q80 40 116 92t36 100q-8 32 -64 60t-56 100q0 32 16 64t80 56q80 8 128 -48t32 -136q-16 -112 -80 -196t-176 -132zM352 744q0 48 36 84t84 36t84 -36t36 -84q0 -56 -36 -92t-84 -36t-84 36t-36 92z" />
<glyph unicode="&#x3c;" d="M64 720l800 736l80 -80l-720 -656l720 -640l-72 -88z" />
<glyph unicode="=" d="M40 440v128h912v-128h-912zM40 928v128h912v-128h-912z" />
<glyph unicode="&#x3e;" d="M64 80l720 640l-720 656l80 80l800 -736l-808 -728z" />
<glyph unicode="?" d="M104 984q8 224 120 332t272 108q176 0 276 -96t100 -248q0 -104 -48 -192t-128 -152t-112 -128t-32 -88v-56h-144v80q0 72 36 140t124 148q64 56 88 116t24 116q0 104 -48 156t-136 52t-148 -68t-60 -220h-184zM368 144q0 48 32 80t80 32t80 -32t32 -80t-32 -80t-80 -32 t-80 32t-32 80z" />
<glyph unicode="@" d="M40 696q0 360 152 544t352 184q192 0 304 -160t112 -416q0 -296 -84 -408t-180 -112q-40 0 -72 24t-48 72q-40 -48 -80 -72t-80 -24q-80 0 -136 68t-56 196q0 216 112 384t216 168q40 0 56 -8t40 -56l40 64h88l-112 -608q-8 -48 8 -72t48 -24q88 0 124 108t36 300 q0 240 -92 376t-244 136q-168 0 -296 -164t-128 -500t120 -472t288 -136q64 0 136 36t112 108l40 -56q-48 -64 -124 -108t-164 -44q-200 0 -344 156t-144 516zM352 600q0 -88 28 -128t68 -40q48 0 72 40t32 88l72 392q8 48 -8 76t-56 28q-64 0 -136 -148t-72 -308z" />
<glyph unicode="A" d="M24 40l400 1384h160l400 -1384h-192l-112 424h-352l-112 -424h-192zM368 616h272l-128 488h-16z" />
<glyph unicode="B" d="M88 40v1368h416q200 0 300 -104t100 -248t-68 -212t-140 -92q96 -24 172 -100t76 -204q0 -232 -128 -320t-328 -88h-400zM272 192h184q144 0 220 56t76 200q0 128 -84 180t-188 52h-208v-488zM272 832h232q88 0 152 52t64 172q0 104 -60 152t-148 48h-240v-424z" />
<glyph unicode="C" d="M72 680q0 376 132 560t340 184q176 0 292 -132q109 -123 109 -341q0 -15 -1 -31h-176q0 176 -56 264t-168 88q-128 0 -204 -132t-76 -444q0 -288 76 -404t196 -116q88 0 160 84t72 324h184q-8 -304 -128 -432t-288 -128q-192 0 -328 156t-136 500z" />
<glyph unicode="D" d="M88 40v1368h272q296 0 436 -160t140 -528t-156 -524t-420 -156h-272zM272 192h88q192 0 288 116t96 412t-96 416t-288 120h-88v-1064z" />
<glyph unicode="E" d="M112 40v1368h776v-152h-592v-424h544v-152h-544v-488h632v-152h-816z" />
<glyph unicode="F" d="M96 40v1368h840v-152h-656v-448h496v-152h-496v-616h-184z" />
<glyph unicode="G" d="M72 680q0 376 120 560t328 184q184 0 288 -136t104 -352h-176q0 168 -56 252t-160 84q-128 0 -192 -132t-64 -444q0 -296 80 -408t184 -112t164 76t60 236v88h-248v152h408v-704h-136l-24 112q-32 -48 -100 -80t-148 -32q-168 0 -300 156t-132 500z" />
<glyph unicode="H" d="M88 40v1368h184v-576h456v576h184v-1368h-184v640h-456v-640h-184z" />
<glyph unicode="I" d="M408 40v1368h184v-1368h-184z" />
<glyph unicode="J" d="M104 480v88h184v-112q0 -144 60 -204t140 -60q112 0 168 64t56 232v920h184v-912q0 -248 -108 -360t-292 -112q-168 0 -280 108t-112 348z" />
<glyph unicode="K" d="M88 40v1368h184v-592l456 592h216l-424 -536l456 -832h-208l-368 680l-128 -168v-512h-184z" />
<glyph unicode="L" d="M96 40v1368h184v-1216h648v-152h-832z" />
<glyph unicode="M" d="M72 40v1368h248l176 -904h16l176 904h248v-1368h-160v976h-16l-192 -976h-128l-192 976h-16v-976h-160z" />
<glyph unicode="N" d="M80 40v1368h200l440 -992h8v992h184v-1368h-200l-440 992h-8v-992h-184z" />
<glyph unicode="O" d="M56 728q0 376 120 536t328 160t324 -160t116 -536t-116 -540t-324 -164t-328 164t-120 540zM248 728q0 -336 76 -444t180 -108t176 108t72 444t-72 440t-176 104t-180 -104t-76 -440z" />
<glyph unicode="P" d="M104 40v1368h416q200 0 312 -112t112 -304t-112 -304t-312 -112h-232v-536h-184zM288 728h184q144 0 216 56t72 208t-72 208t-216 56h-184v-528z" />
<glyph unicode="Q" d="M56 728q0 376 120 536t328 160t324 -160t116 -536q0 -192 -28 -324t-92 -212l64 -120l-128 -136l-72 136q-32 -24 -80 -36t-104 -12q-208 0 -328 164t-120 540zM248 728q0 -336 76 -444t180 -108q40 0 72 12t48 28l-128 248l112 136l112 -216q16 80 24 144t8 200 q0 336 -72 440t-176 104t-180 -104t-76 -440z" />
<glyph unicode="R" d="M88 40v1368h400q192 0 312 -92t120 -300q0 -160 -80 -248t-184 -112l304 -616h-192l-288 592h-208v-592h-184zM272 784h224q96 0 168 52t72 180q0 112 -68 176t-220 64h-176v-472z" />
<glyph unicode="S" d="M72 416v56h184v-48q0 -120 72 -184t168 -64q128 0 188 68t60 164q0 80 -72 148t-208 124q-192 72 -276 160t-84 208q0 168 116 272t276 104q208 0 300 -124t92 -268h-184q1 11 1 22q0 75 -49 138q-56 72 -160 72q-96 0 -152 -52t-56 -140q0 -72 44 -124t228 -124 q176 -72 272 -172t96 -228q0 -184 -116 -292t-316 -108t-312 112t-112 280z" />
<glyph unicode="T" d="M88 1256v152h824v-152h-320v-1216h-184v1216h-320z" />
<glyph unicode="U" d="M88 440v968h184v-968q0 -136 64 -200t168 -64t168 64t64 200v968h184v-968q0 -192 -100 -304t-316 -112t-316 112t-100 304z" />
<glyph unicode="V" d="M16 1408h192l280 -1048h16l280 1048h192l-400 -1384h-160z" />
<glyph unicode="W" d="M8 1408h176l88 -872h16l120 872h176l120 -872h16l88 872h176l-176 -1384h-160l-144 1024h-16l-144 -1024h-160z" />
<glyph unicode="X" d="M32 40l376 720l-336 648h192l232 -496l232 496h192l-336 -648l376 -720h-192l-272 560l-272 -560h-192z" />
<glyph unicode="Y" d="M32 1408h184l280 -584h8l280 584h184l-376 -752v-616h-184v616z" />
<glyph unicode="Z" d="M72 40v152l648 1064h-600v152h784v-152l-648 -1064h672v-152h-856z" />
<glyph unicode="[" d="M400 -168v1784h504v-128h-368v-1528h368v-128h-504z" />
<glyph unicode="\" d="M104 1456h128l672 -1664h-128z" />
<glyph unicode="]" d="M96 -40h368v1528h-368v128h504v-1784h-504v128z" />
<glyph unicode="^" d="M112 1320l288 328h192l288 -328h-144l-240 200l-240 -200h-144z" />
<glyph unicode="_" d="M0 -176h1008v-96h-1008v96z" />
<glyph unicode="`" d="M256 1648h240l232 -368h-136z" />
<glyph unicode="a" d="M88 272q0 120 80 192t248 96q112 16 196 40t84 64q0 48 -36 96t-156 48q-96 0 -140 -36t-60 -100h-176q16 128 116 204t260 76q176 0 264 -80t88 -224v-440q0 -48 16 -88t48 -80h-192q-16 16 -24 44t-8 68q-56 -64 -136 -96t-168 -32q-128 0 -216 64t-88 184zM264 288 q0 -48 36 -84t108 -36t156 40t132 128v160q-48 -16 -92 -28t-148 -28q-120 -16 -156 -56t-36 -96z" />
<glyph unicode="b" d="M96 40v1368h160v-592q48 72 112 108t152 36q160 0 272 -120t112 -352t-112 -348t-272 -116q-88 0 -152 32t-112 104v-120h-160zM256 488q0 -152 68 -236t164 -84q120 0 180 84t60 236t-60 240t-180 88q-96 0 -164 -88t-68 -240z" />
<glyph unicode="c" d="M72 488q0 216 128 340t304 124t280 -92t104 -220h-176q-8 96 -68 132t-140 36q-96 0 -176 -76t-80 -244t80 -244t176 -76q104 0 168 56t64 176h176q0 -168 -116 -272t-292 -104t-304 124t-128 340z" />
<glyph unicode="d" d="M72 488q0 232 112 352t272 120q88 0 152 -36t112 -108v592h160v-1368h-160v120q-48 -72 -112 -104t-152 -32q-160 0 -272 116t-112 348zM248 488q0 -152 60 -236t180 -84q96 0 164 84t68 236t-68 240t-164 88q-120 0 -180 -88t-60 -240z" />
<glyph unicode="e" d="M80 488q0 216 124 340t316 124q168 0 276 -108t108 -356h-648q0 -176 76 -248t188 -72q88 0 144 44t72 132h176q-16 -144 -128 -232t-264 -88q-192 0 -316 124t-124 340zM264 616h456q-16 112 -72 156t-144 44q-80 0 -144 -44t-96 -156z" />
<glyph unicode="f" d="M88 808v128h272v184q0 144 88 224t232 80q88 0 140 -12t92 -28v-160q-40 24 -96 40t-144 16t-120 -44t-32 -108v-192h328v-128h-328v-768h-160v768h-272z" />
<glyph unicode="g" d="M80 -48q0 48 40 96t104 80q-48 24 -76 60t-28 92q0 48 36 84t84 60q-40 40 -64 96t-24 120q0 136 92 224t228 88q72 0 124 -20t92 -60q64 48 128 68q46 14 96 14q19 0 40 -2v-152q-56 16 -108 20q-10 1 -21 1q-42 0 -87 -13q24 -24 40 -60t16 -108q0 -136 -92 -224 t-228 -88q-32 0 -84 12t-84 28q-24 -16 -32 -32t-8 -40q0 -40 56 -60t200 -20q232 0 316 -64t84 -160q0 -128 -124 -188t-292 -60q-216 0 -320 56t-104 152zM224 -32q0 -48 64 -80t224 -32q136 0 196 36t60 84q0 32 -36 64t-180 32q-32 0 -88 4t-128 12q-64 -24 -88 -56 t-24 -64zM312 640q0 -80 40 -128t120 -48t120 48t40 128t-40 128t-120 48t-120 -48t-40 -128z" />
<glyph unicode="h" d="M112 40v1368h160v-640q64 88 140 136t196 48q144 0 216 -80t72 -200v-632h-160v576q0 96 -48 152t-128 56q-104 0 -196 -108t-92 -268v-408h-160z" />
<glyph unicode="i" d="M388 1296v8q0 58 52 88q30 17 60 17l52 -13q56 -28 60 -92q0 -4 1 -8q0 -58 -53 -88q-30 -17 -60 -17l-52 13q-56 28 -60 92zM416 40v896h160v-896h-160z" />
<glyph unicode="j" d="M184 -56q40 -24 96 -40t144 -16t120 44t32 108v896h160v-888q0 -144 -88 -224t-232 -80q-88 0 -140 12t-92 28v160zM548 1296v8q0 58 52 88q30 17 60 17l52 -13q56 -28 60 -92v-8q0 -58 -52 -88q-30 -17 -60 -17l-52 13q-56 28 -60 92z" />
<glyph unicode="k" d="M120 40v1368h160v-872l400 400h200l-312 -304l368 -592h-184l-288 488l-184 -176v-312h-160z" />
<glyph unicode="l" d="M424 40v1368h160v-1368h-160z" />
<glyph unicode="m" d="M32 40v896h160v-120q40 64 96 100t120 36t108 -36t60 -100q40 64 92 100t116 36q96 0 144 -52t48 -148v-712h-160v648q0 48 -16 80t-64 32q-56 0 -104 -60t-48 -156v-544h-160v648q0 48 -16 80t-64 32q-56 0 -104 -60t-48 -156v-544h-160z" />
<glyph unicode="n" d="M112 40v896h160v-168q64 88 140 136t196 48q144 0 216 -80t72 -200v-632h-160v576q0 96 -48 152t-128 56q-104 0 -196 -108t-92 -268v-408h-160z" />
<glyph unicode="o" d="M72 488q0 208 128 336t304 128t304 -128t128 -336t-128 -336t-304 -128t-304 128t-128 336zM248 488q0 -160 80 -240t176 -80t176 80t80 240t-80 240t-176 80t-176 -80t-80 -240z" />
<glyph unicode="p" d="M96 -256v1192h160v-120q48 72 112 104t152 32q160 0 272 -116t112 -348t-112 -352t-272 -120q-88 0 -152 36t-112 108v-416h-160zM256 488q0 -152 68 -240t164 -88q120 0 180 88t60 240t-60 236t-180 84q-96 0 -164 -84t-68 -236z" />
<glyph unicode="q" d="M72 488q0 232 112 348t272 116q88 0 152 -32t112 -104v120h160v-1192h-160v416q-48 -72 -112 -108t-152 -36q-160 0 -272 120t-112 352zM248 488q0 -152 60 -240t180 -88q96 0 164 88t68 240t-68 236t-164 84q-120 0 -180 -84t-60 -236z" />
<glyph unicode="r" d="M208 40v896h160v-232q72 128 180 188t252 60v-176q-40 6 -76 6q-103 0 -180 -50q-104 -68 -176 -236v-456h-160z" />
<glyph unicode="s" d="M128 320h160q0 -96 68 -128t164 -32t144 36t48 92q0 40 -40 80t-200 64q-184 24 -252 92t-68 180q0 96 92 172t268 76q160 0 252 -72t92 -192h-160q0 72 -52 100t-132 28q-104 0 -148 -36t-44 -84q0 -56 40 -88t168 -48q208 -32 280 -100t72 -172q0 -128 -100 -196 t-252 -68q-192 0 -296 76t-104 220z" />
<glyph unicode="t" d="M56 808v128h272v312h160v-312h328v-128h-328v-488q0 -64 32 -108t120 -44t144 16t96 40v-160q-40 -16 -92 -28t-140 -12q-144 0 -232 80t-88 224v480h-272z" />
<glyph unicode="u" d="M112 304v632h160v-576q0 -96 48 -152t128 -56q104 0 196 108t92 268v408h160v-896h-160v168q-64 -88 -140 -136t-196 -48q-144 0 -216 80t-72 200z" />
<glyph unicode="v" d="M72 936h168l248 -696h16l248 696h168l-336 -912h-176z" />
<glyph unicode="w" d="M8 936h168l104 -600h16l112 600h176l112 -600h16l104 600h168l-200 -912h-152l-128 696h-16l-128 -696h-152z" />
<glyph unicode="x" d="M72 40l328 456l-304 440h192l208 -336l208 336h192l-304 -440l328 -456h-192l-232 344l-232 -344h-192z" />
<glyph unicode="y" d="M64 936h176l256 -704h8l248 704h176l-368 -968q-32 -112 -96 -168t-160 -56q-40 0 -76 4t-68 20v160q32 -16 64 -24t56 -8q64 0 88 20t48 92z" />
<glyph unicode="z" d="M112 40v128l544 640h-512v128h704v-128l-544 -640h584v-128h-776z" />
<glyph unicode="{" d="M456 664v112q56 0 80 24t24 80v520q0 104 48 160t144 56h128v-96h-64q-48 0 -72 -24t-24 -72v-488q0 -80 -16 -136t-56 -80q40 -32 56 -84t16 -132v-480q0 -48 24 -72t72 -24h64v-96h-128q-96 0 -144 52t-48 164v512q0 48 -24 76t-80 28z" />
<glyph unicode="|" d="M424 -272v2032h160v-2032h-160z" />
<glyph unicode="}" d="M120 -72h64q48 0 72 24t24 72v480q0 80 20 132t52 84q-32 24 -52 80t-20 136v488q0 48 -24 72t-72 24h-64v96h128q96 0 144 -56t48 -160v-520q0 -56 28 -80t76 -24v-112q-48 0 -76 -28t-28 -76v-512q0 -112 -48 -164t-144 -52h-128v96z" />
<glyph unicode="~" d="M112 1472q48 112 100 188t124 76q88 0 196 -100t164 -100q32 0 80 48t72 144l80 -104q-48 -112 -108 -188t-140 -76q-56 0 -160 104t-176 104q-56 0 -88 -44t-64 -140z" />
<glyph unicode="&#xa0;" />
<glyph unicode="&#xa4;" horiz-adv-x="2048" d="M168 16l248 248q-152 192 -160 472t192 504l-256 256l96 88l248 -248q176 152 476 152t508 -176l264 264l104 -104l-264 -264q160 -200 148 -488t-180 -480l240 -240l-104 -96l-232 240q-248 -168 -528 -156t-464 172l-240 -240zM392 740q0 -220 120 -380t284 -212 t368 -8t332 196t140 388t-152 432t-472 196t-464 -196t-156 -416z" />
<glyph unicode="&#xa7;" horiz-adv-x="2048" d="M600 200l128 72q48 -152 200 -200q8 -16 184 0q88 0 144 120v48q8 112 -368 208q-88 16 -224 112q-72 64 -64 192q16 160 216 216l24 16q-216 96 -208 288q16 216 280 280l72 8q184 8 336 -112q88 -80 104 -192l-128 -64q-24 248 -328 240q-176 -16 -192 -144l-8 -40 q-24 -136 304 -208q160 -32 288 -144q64 -88 48 -200q8 -120 -208 -224q216 -80 200 -264v-40q-40 -240 -424 -240q-168 0 -312 152zM744 736q48 -176 336 -176q128 24 176 136l8 64q-48 128 -328 136q-160 -16 -192 -144v-16z" />
<glyph unicode="&#xa8;" horiz-adv-x="2048" d="M568 1308q0 84 68 124t144 4t80 -132t-84 -132t-148 8t-60 128zM1192 1308q0 84 68 124t144 4t80 -132t-84 -132t-148 8t-60 128z" />
<glyph unicode="&#xad;" d="M40 680v128h912v-128h-912z" />
<glyph unicode="&#xb0;" horiz-adv-x="2048" d="M268 1264q4 96 52 148t120 72t140 4t116 -84t36 -172t-80 -156t-168 -44t-160 72t-56 160zM352 1280q-8 -56 20 -104t104 -60t124 32t48 120t-48 116t-104 32t-96 -44t-48 -92z" />
<glyph unicode="&#xb1;" horiz-adv-x="2048" d="M312 120v144h1392v-144h-1392zM312 984v136h640v488h136v-488h616v-136h-616v-488h-136v488h-640z" />
<glyph unicode="&#xb7;" horiz-adv-x="2048" d="M784 736q0 144 120 208t240 -4t112 -208t-120 -196t-232 0t-120 200z" />
<glyph unicode="&#xd7;" horiz-adv-x="2048" d="M384 192l544 560l-544 552l80 96l544 -560l552 560l80 -104l-536 -552l536 -552l-80 -96l-552 560l-536 -560h-8z" />
<glyph unicode="&#xe0;" horiz-adv-x="2048" d="M572 472q-12 224 92 348t276 136t276 -100v104h152v-720q0 -80 56 -72v-136h-104q-104 0 -104 120q-48 -72 -148 -104t-204 -8t-192 116t-100 316zM728 1360h176l224 -280h-192zM744 496q0 -152 60 -236t180 -84q96 0 164 84t68 236t-68 240t-164 88q-120 0 -180 -88 t-60 -240z" />
<glyph unicode="&#xe1;" horiz-adv-x="2048" d="M572 472q-12 224 92 348t276 136t276 -100v104h152v-720q0 -80 56 -72v-136h-104q-104 0 -104 120q-48 -72 -148 -104t-204 -8t-192 116t-100 316zM744 496q0 -152 60 -236t180 -84q96 0 164 84t68 236t-68 240t-164 88q-120 0 -180 -88t-60 -240zM864 1056l232 296h176 l-232 -296h-176z" />
<glyph unicode="&#xe8;" horiz-adv-x="2048" d="M560 496q0 216 124 340t304 124t288 -108t108 -356h-648q0 -176 76 -248t176 -72t156 44t72 132h176q-16 -144 -128 -232t-284 -88t-296 124t-124 340zM720 1360h176l224 -280h-192zM744 624h456q-16 112 -72 156t-140 44t-148 -44t-96 -156z" />
<glyph unicode="&#xe9;" horiz-adv-x="2048" d="M560 496q0 216 124 340t304 124t288 -108t108 -356h-648q0 -176 76 -248t176 -72t156 44t72 132h176q-16 -144 -128 -232t-284 -88t-296 124t-124 340zM744 624h456q-16 112 -72 156t-140 44t-148 -44t-96 -156zM872 1064l232 296h176l-232 -296h-176z" />
<glyph unicode="&#xea;" horiz-adv-x="2048" d="M560 496q0 216 124 340t304 124t288 -108t108 -356h-648q0 -168 76 -240t176 -72t156 44t72 124h176q-16 -144 -128 -232t-284 -88t-296 124t-124 340zM672 1032l320 368l328 -368h-176l-152 168l-136 -168h-184zM744 624h456q-16 112 -72 156t-140 44t-148 -44t-96 -156 z" />
<glyph unicode="&#xec;" horiz-adv-x="2048" d="M680 1352h176l224 -280h-192zM888 32v928h160v-928h-160z" />
<glyph unicode="&#xed;" horiz-adv-x="2048" d="M880 1048l232 296h176l-232 -296h-176zM888 32v928h160v-928h-160z" />
<glyph unicode="&#xf2;" horiz-adv-x="2048" d="M576 496q0 208 128 336t304 128t304 -128t128 -336t-128 -336t-304 -128t-304 128t-128 336zM736 1344h176l224 -280h-192zM752 496q0 -160 80 -240t176 -80t176 80t80 240t-80 240t-176 80t-176 -80t-80 -240z" />
<glyph unicode="&#xf3;" horiz-adv-x="2048" d="M576 496q0 208 128 336t304 128t304 -128t128 -336t-128 -336t-304 -128t-304 128t-128 336zM752 496q0 -160 80 -240t176 -80t176 80t80 240t-80 240t-176 80t-176 -80t-80 -240zM928 1040l232 296h176l-232 -296h-176z" />
<glyph unicode="&#xf7;" horiz-adv-x="2048" d="M312 672v136h1392v-136h-1392zM880 216q0 104 112 136h32q120 -16 136 -120v-56q-56 -128 -168 -104q-104 8 -112 144zM880 1288q0 104 120 136h24q120 -16 136 -112v-64q-48 -128 -168 -112q-104 16 -112 152z" />
<glyph unicode="&#xf9;" horiz-adv-x="2048" d="M600 312v648h160v-592q0 -96 48 -152t140 -56t184 108t92 268v424h160v-912h-160v168q-64 -88 -140 -136t-208 -48t-204 80t-72 200zM744 1352h176l224 -280h-192z" />
<glyph unicode="&#xfa;" horiz-adv-x="2048" d="M600 312v648h160v-592q0 -96 48 -152t140 -56t184 108t92 268v424h160v-912h-160v168q-64 -88 -140 -136t-208 -48t-204 80t-72 200zM912 1040l232 296h176l-232 -296h-176z" />
<glyph unicode="&#xfc;" horiz-adv-x="2048" d="M600 312v648h160v-592q0 -96 48 -152t140 -56t184 108t92 268v424h160v-912h-160v168q-64 -88 -140 -136t-208 -48t-204 80t-72 200zM704 1128q0 40 20 64t52 32t64 0t48 -32t16 -64t-36 -64t-68 -24t-64 24t-32 64zM1112 1128q0 40 20 64t48 32t64 0t52 -32t16 -64 t-36 -64t-68 -24t-64 24t-32 64z" />
<glyph unicode="&#x2000;" horiz-adv-x="880" vert-adv-y="0" />
<glyph unicode="&#x2001;" horiz-adv-x="1760" vert-adv-y="0" />
<glyph unicode="&#x2002;" horiz-adv-x="880" vert-adv-y="0" />
<glyph unicode="&#x2003;" horiz-adv-x="1760" vert-adv-y="0" />
<glyph unicode="&#x2004;" horiz-adv-x="586" vert-adv-y="0" />
<glyph unicode="&#x2005;" horiz-adv-x="440" vert-adv-y="0" />
<glyph unicode="&#x2006;" horiz-adv-x="293" vert-adv-y="0" />
<glyph unicode="&#x2007;" horiz-adv-x="293" vert-adv-y="0" />
<glyph unicode="&#x2008;" horiz-adv-x="220" vert-adv-y="0" />
<glyph unicode="&#x2009;" horiz-adv-x="352" vert-adv-y="0" />
<glyph unicode="&#x200a;" horiz-adv-x="97" vert-adv-y="0" />
<glyph unicode="&#x2010;" d="M40 680v128h912v-128h-912z" />
<glyph unicode="&#x2011;" d="M40 680v128h912v-128h-912z" />
<glyph unicode="&#x2012;" d="M40 680v128h912v-128h-912z" />
<glyph unicode="&#x2013;" horiz-adv-x="2048" d="M664 680v120h744v-120h-744z" />
<glyph unicode="&#x2014;" horiz-adv-x="2048" d="M0 680v120h2040v-120h-2040z" />
<glyph unicode="&#x2018;" horiz-adv-x="2048" d="M1404 1000q-28 64 0 152t88 164t156 148t116 64t-56 -76t-116 -124t-72 -152q96 8 132 -40t28 -104t-60 -96t-120 -20t-96 84z" />
<glyph unicode="&#x2019;" horiz-adv-x="2048" d="M292 904q-12 8 56 80t100 124t72 132q-88 0 -120 44t-28 104t48 96t116 16t96 -84t-4 -144t-84 -152t-148 -148t-104 -68z" />
<glyph unicode="&#x201c;" horiz-adv-x="2048" d="M972 1000q-28 64 0 152t88 164t156 148t116 64t-56 -76t-116 -124t-72 -152q96 8 132 -40t28 -104t-60 -96t-120 -20t-96 84zM1404 1000q-28 64 0 152t88 164t156 148t116 64t-56 -76t-116 -124t-72 -152q96 8 132 -40t28 -104t-60 -96t-120 -20t-96 84z" />
<glyph unicode="&#x201d;" horiz-adv-x="2048" d="M288 904q-16 8 56 80t104 124t72 132q-88 0 -120 44t-28 104t48 96t116 16t96 -84t-4 -144t-84 -152t-148 -148t-108 -68zM704 904q-16 8 56 80t104 124t72 132q-88 0 -120 44t-28 104t48 96t116 16t96 -84t-4 -144t-84 -152t-148 -148t-108 -68z" />
<glyph unicode="&#x2026;" horiz-adv-x="2048" d="M208 696q0 88 80 136t160 -4t72 -140t-84 -124t-152 4t-76 128zM864 696q0 88 80 136t160 -4t72 -140t-84 -124t-152 4t-76 128zM1520 696q0 88 80 136t160 -4t72 -140t-84 -124t-152 4t-76 128z" />
<glyph unicode="&#x202f;" horiz-adv-x="352" vert-adv-y="0" />
<glyph unicode="&#x205f;" horiz-adv-x="440" vert-adv-y="0" />
<glyph unicode="&#x20ac;" horiz-adv-x="2048" d="M384 800l24 88h120q40 344 352 512q80 56 264 64q256 16 432 -144l-32 -168q-112 128 -304 152l-120 8q-352 -16 -440 -424h848l-32 -88h-824q-8 -120 0 -152h800l-32 -88h-752q48 -264 296 -368q56 -32 192 -24q192 32 304 104l56 32l32 -160l-72 -40q-144 -72 -320 -88 h-120q-264 48 -384 200t-144 344h-136l24 88h96q0 88 8 152h-136z" />
<glyph unicode="&#x25fc;" horiz-adv-x="920" vert-adv-y="1840" d="M0 0v920h920v-920h-920z" />
</font>
</defs>
</svg>
